<svg xmlns="http://www.w3.org/2000/svg" version="1.1" xmlns:xlink="http://www.w3.org/1999/xlink" xmlns:svgjs="http://svgjs.dev/svgjs" width="1000" height="623" viewBox="0 0 1000 623"><g transform="matrix(1,0,0,1,-0.6060606060606233,0.2522267206477409)"><svg viewBox="0 0 396 247" data-background-color="#ffffff" preserveAspectRatio="xMidYMid meet" height="623" width="1000" xmlns="http://www.w3.org/2000/svg" xmlns:xlink="http://www.w3.org/1999/xlink"><g id="tight-bounds" transform="matrix(1,0,0,1,0.2400000000000091,-0.09999999999999432)"><svg viewBox="0 0 395.52 247.2" height="247.2" width="395.52"><g><svg></svg></g><g><svg viewBox="0 0 395.52 247.2" height="247.2" width="395.52"><g transform="matrix(1,0,0,1,39.55199999999999,82.14267593479721)"><svg viewBox="0 0 316.416 82.91464813040555" height="82.91464813040555" width="316.416"><g><svg viewBox="0 0 316.416 82.91464813040555" height="82.91464813040555" width="316.416"><g><svg viewBox="0 0 316.416 82.91464813040555" height="82.91464813040555" width="316.416"><g><svg viewBox="0 0 316.416 82.91464813040555" height="82.91464813040555" width="316.416"><g id="textblocktransform"><svg viewBox="0 0 316.416 82.91464813040555" height="82.91464813040555" width="316.416" id="textblock"><g><svg viewBox="0 0 316.416 49.43670948419301" height="49.43670948419301" width="316.416"><g transform="matrix(1,0,0,1,0,0)"><svg width="316.416" viewBox="-3.049999952316284 -42.70000076293945 302.0799865722656 47.95000076293945" height="49.43670948419301" data-palette-color="#0074d9"><g class="wordmark-text-0" data-fill-palette-color="primary" id="text-0"><path d="M13.3-20.7L17.3-20.7 23.4-6.75 22.5-6.65 28.2-20.7 32.75-20.7 23.25 1.25 16.6-12.95 10.55 1.25 0.95-20.7 5.5-20.7 11.95-6.1 10.35-6.4 14.95-17.1 13.3-20.7ZM47.35 0.5L47.35 0.5Q43.8 0.5 41.25-0.93 38.7-2.35 37.32-4.83 35.95-7.3 35.95-10.5L35.95-10.5Q35.95-13.55 37.5-16.05 39.05-18.55 41.65-20.05 44.25-21.55 47.45-21.55L47.45-21.55Q51.55-21.55 54.25-19.15 56.95-16.75 57.9-12.55L57.9-12.55 40.85-6.55 39.75-9.3 53.75-14.4 52.75-13.75Q52.15-15.4 50.75-16.63 49.35-17.85 47.1-17.85L47.1-17.85Q45.2-17.85 43.7-16.93 42.2-16 41.35-14.4 40.5-12.8 40.5-10.75L40.5-10.75Q40.5-8.6 41.4-6.98 42.3-5.35 43.87-4.42 45.45-3.5 47.45-3.5L47.45-3.5Q48.8-3.5 50.07-4 51.35-4.5 52.45-5.3L52.45-5.3 54.6-1.85Q53.05-0.8 51.12-0.15 49.2 0.5 47.35 0.5ZM72.35 0.5L72.35 0.5Q69.45 0.5 67.07-0.75 64.7-2 63.32-4.42 61.95-6.85 61.95-10.35L61.95-10.35Q61.95-13.8 63.4-16.32 64.85-18.85 67.27-20.2 69.7-21.55 72.6-21.55L72.6-21.55Q75.5-21.55 77.5-20.23 79.5-18.9 80.55-17.1L80.55-17.1 80.25-16.3 80.7-20.7 85-20.7 85 0 80.35 0 80.35-5.4 80.85-4.2Q80.65-3.7 79.97-2.93 79.3-2.15 78.17-1.35 77.05-0.55 75.6-0.03 74.15 0.5 72.35 0.5ZM73.6-3.35L73.6-3.35Q75.35-3.35 76.75-4 78.15-4.65 79.07-5.83 80-7 80.35-8.65L80.35-8.65 80.35-12.7Q79.95-14.2 78.95-15.33 77.95-16.45 76.55-17.07 75.15-17.7 73.45-17.7L73.45-17.7Q71.6-17.7 70.05-16.8 68.5-15.9 67.57-14.3 66.65-12.7 66.65-10.55L66.65-10.55Q66.65-8.55 67.6-6.9 68.55-5.25 70.15-4.3 71.75-3.35 73.6-3.35ZM95.04-20.6L95.04-29.8 99.69-29.8 99.69-20.6 105.39-20.6 105.39-16.95 99.69-16.95 99.69 0 95.04 0 95.04-16.95 91.24-16.95 91.24-20.6 95.04-20.6ZM115.64 0L110.99 0 110.99-38.7 115.54-38.7 115.54-15.9 115.44-16.75Q116.49-18.8 118.67-20.15 120.84-21.5 123.79-21.5L123.79-21.5Q126.74-21.5 128.62-19.78 130.49-18.05 130.54-15.3L130.54-15.3 130.54 0 125.84 0 125.84-13.65Q125.79-15.35 124.87-16.43 123.94-17.5 121.99-17.5L121.99-17.5Q120.19-17.5 118.74-16.48 117.29-15.45 116.47-13.7 115.64-11.95 115.64-9.7L115.64-9.7 115.64 0ZM148.24 0.5L148.24 0.5Q144.69 0.5 142.14-0.93 139.59-2.35 138.21-4.83 136.84-7.3 136.84-10.5L136.84-10.5Q136.84-13.55 138.39-16.05 139.94-18.55 142.54-20.05 145.14-21.55 148.34-21.55L148.34-21.55Q152.44-21.55 155.14-19.15 157.84-16.75 158.79-12.55L158.79-12.55 141.74-6.55 140.64-9.3 154.64-14.4 153.64-13.75Q153.04-15.4 151.64-16.63 150.24-17.85 147.99-17.85L147.99-17.85Q146.09-17.85 144.59-16.93 143.09-16 142.24-14.4 141.39-12.8 141.39-10.75L141.39-10.75Q141.39-8.6 142.29-6.98 143.19-5.35 144.76-4.42 146.34-3.5 148.34-3.5L148.34-3.5Q149.69-3.5 150.96-4 152.24-4.5 153.34-5.3L153.34-5.3 155.49-1.85Q153.94-0.8 152.01-0.15 150.09 0.5 148.24 0.5ZM164.64-20.7L168.78-20.7 169.24-14.7 168.99-15.5Q169.78-17.4 171.31-18.73 172.84-20.05 174.51-20.78 176.19-21.5 177.44-21.5L177.44-21.5 177.19-16.9Q174.84-17.05 173.06-16 171.28-14.95 170.26-13.2 169.24-11.45 169.24-9.45L169.24-9.45 169.24 0 164.64 0 164.64-20.7Z" fill="#0074d9" data-fill-palette-color="primary"></path><path d="M195.89-4.85L198.29-1.9Q196.89-0.8 194.94-0.15 192.99 0.5 191.04 0.5L191.04 0.5Q187.64 0.5 185.09-0.85 182.54-2.2 181.12-4.63 179.69-7.05 179.69-10.35L179.69-10.35Q179.69-13.65 181.22-16.1 182.74-18.55 185.22-19.88 187.69-21.2 190.54-21.2L190.54-21.2Q193.04-21.2 195.01-20.5 196.99-19.8 198.39-18.6L198.39-18.6 196.09-15.6Q195.19-16.3 193.89-16.85 192.59-17.4 190.94-17.4L190.94-17.4Q189.14-17.4 187.62-16.48 186.09-15.55 185.22-13.95 184.34-12.35 184.34-10.35L184.34-10.35Q184.34-8.45 185.24-6.83 186.14-5.2 187.74-4.28 189.34-3.35 191.39-3.35L191.39-3.35Q192.74-3.35 193.87-3.75 194.99-4.15 195.89-4.85L195.89-4.85ZM202.49-10.55L202.49-10.55Q202.49-13.65 203.96-16.15 205.44-18.65 208.04-20.1 210.64-21.55 213.94-21.55L213.94-21.55Q217.34-21.55 219.89-20.1 222.44-18.65 223.84-16.15 225.24-13.65 225.24-10.55L225.24-10.55Q225.24-7.45 223.84-4.93 222.44-2.4 219.86-0.95 217.29 0.5 213.89 0.5L213.89 0.5Q210.59 0.5 208.01-0.88 205.44-2.25 203.96-4.73 202.49-7.2 202.49-10.55ZM207.14-10.5L207.14-10.5Q207.14-8.5 208.04-6.88 208.94-5.25 210.46-4.3 211.99-3.35 213.84-3.35L213.84-3.35Q215.79-3.35 217.31-4.3 218.84-5.25 219.69-6.88 220.54-8.5 220.54-10.5L220.54-10.5Q220.54-12.5 219.69-14.13 218.84-15.75 217.31-16.73 215.79-17.7 213.84-17.7L213.84-17.7Q211.94-17.7 210.41-16.7 208.89-15.7 208.01-14.08 207.14-12.45 207.14-10.5ZM240.19 0.6L239.94 0.6 228.44-20.7 233.94-20.7 241.74-4.25 238.89-4.35 246.03-20.7 251.24-20.7 240.19 0.6ZM265.83 0.5L265.83 0.5Q262.28 0.5 259.73-0.93 257.18-2.35 255.81-4.83 254.43-7.3 254.43-10.5L254.43-10.5Q254.43-13.55 255.98-16.05 257.53-18.55 260.13-20.05 262.73-21.55 265.93-21.55L265.93-21.55Q270.03-21.55 272.73-19.15 275.43-16.75 276.38-12.55L276.38-12.55 259.33-6.55 258.23-9.3 272.23-14.4 271.23-13.75Q270.63-15.4 269.23-16.63 267.83-17.85 265.58-17.85L265.58-17.85Q263.68-17.85 262.18-16.93 260.68-16 259.83-14.4 258.98-12.8 258.98-10.75L258.98-10.75Q258.98-8.6 259.88-6.98 260.78-5.35 262.36-4.42 263.93-3.5 265.93-3.5L265.93-3.5Q267.28-3.5 268.56-4 269.83-4.5 270.93-5.3L270.93-5.3 273.08-1.85Q271.53-0.8 269.61-0.15 267.68 0.5 265.83 0.5ZM282.23-20.7L286.38-20.7 286.83-14.7 286.58-15.5Q287.38-17.4 288.91-18.73 290.43-20.05 292.11-20.78 293.78-21.5 295.03-21.5L295.03-21.5 294.78-16.9Q292.43-17.05 290.66-16 288.88-14.95 287.86-13.2 286.83-11.45 286.83-9.45L286.83-9.45 286.83 0 282.23 0 282.23-20.7Z" fill="#001f3f" data-fill-palette-color="secondary"></path></g></svg></g></svg></g><g transform="matrix(1,0,0,1,62.598456,59.36747165876606)"><svg viewBox="0 0 191.219088 23.547176471639496" height="23.547176471639496" width="191.219088"><g transform="matrix(1,0,0,1,0,0)"><svg width="191.219088" viewBox="-2.490000009536743 -43.11000061035156 488.80999755859375 61.06999969482422" height="23.547176471639496" data-palette-color="#001f3f"><path d="M24.9-28.56L24.9-27.93Q24.9-23.88 24.71-19.8 24.51-15.72 24.22-11.67L24.22-11.67Q24.17-10.94 24.12-9.69 24.07-8.45 23.93-7.01 23.78-5.57 23.54-4.1 23.29-2.64 22.78-1.44 22.27-0.24 21.46 0.51 20.65 1.27 19.48 1.27L19.48 1.27Q18.46 1.27 17.65 0.83 16.85 0.39 16.31-0.32 15.77-1.03 15.48-1.93 15.19-2.83 15.19-3.81L15.19-3.81Q15.19-5.42 15.28-7.06 15.38-8.69 15.58-10.3L15.58-10.3 10.74-9.81Q10.6-8.54 10.42-6.76 10.25-4.98 9.74-3.34 9.23-1.71 8.2-0.54 7.18 0.63 5.37 0.63L5.37 0.63Q4.25 0.63 3.52 0.12 2.78-0.39 2.34-1.2 1.9-2 1.71-2.98 1.51-3.96 1.51-4.83L1.51-4.83Q1.51-7.76 1.76-10.67 2-13.57 2.1-16.5L2.1-16.5Q2.2-19.58 2.17-22.68 2.15-25.78 2.25-28.91L2.25-28.91Q2.29-29.93 2.32-31.3 2.34-32.67 2.66-33.86 2.98-35.06 3.74-35.89 4.49-36.72 6.01-36.72L6.01-36.72Q8.11-36.72 9.18-35.62 10.25-34.52 10.69-32.89 11.13-31.25 11.13-29.42 11.13-27.59 11.13-26.12L11.13-26.12Q11.13-24.17 11.04-22.29 10.94-20.41 10.84-18.51L10.84-18.51 16.06-19.29Q16.11-21.68 16.16-24.02 16.21-26.37 16.36-28.71L16.36-28.71Q16.41-29.83 16.46-31.1 16.5-32.37 16.85-33.45 17.19-34.52 17.99-35.23 18.8-35.94 20.41-35.94L20.41-35.94Q21.78-35.94 22.63-35.16 23.49-34.38 24-33.25 24.51-32.13 24.71-30.86 24.9-29.59 24.9-28.56L24.9-28.56ZM48.58-8.69L48.58-8.69Q48.58-7.03 47.53-5.44 46.48-3.86 44.89-2.61 43.31-1.37 41.5-0.61 39.69 0.15 38.18 0.15L38.18 0.15Q35.59 0.15 33.57-1.15 31.54-2.44 30.17-4.44 28.81-6.45 28.1-8.86 27.39-11.28 27.39-13.57L27.39-13.57Q27.39-16.02 28.07-18.8 28.76-21.58 30.15-23.93 31.54-26.27 33.66-27.83 35.79-29.39 38.72-29.39L38.72-29.39Q40.38-29.39 41.89-28.83 43.41-28.27 44.53-27.25 45.65-26.22 46.34-24.8 47.02-23.39 47.02-21.63L47.02-21.63Q47.02-19.34 46.04-17.33 45.07-15.33 43.45-13.87 41.84-12.4 39.74-11.5 37.64-10.6 35.45-10.5L35.45-10.5Q35.64-9.08 36.59-8.45 37.55-7.81 38.86-7.81L38.86-7.81Q39.84-7.81 40.77-8.3 41.7-8.79 42.58-9.4 43.45-10.01 44.31-10.5 45.16-10.99 46.04-10.99L46.04-10.99Q47.02-10.99 47.8-10.35 48.58-9.72 48.58-8.69ZM40.67-20.65L40.67-20.65Q40.67-21.29 40.33-21.97 39.99-22.66 39.26-22.66L39.26-22.66Q38.18-22.66 37.45-22.09 36.72-21.53 36.23-20.68 35.74-19.82 35.47-18.85 35.2-17.87 35.15-17.04L35.15-17.04Q35.84-17.19 36.79-17.43 37.74-17.68 38.6-18.09 39.45-18.51 40.06-19.14 40.67-19.78 40.67-20.65ZM71.28-6.88L71.28-6.88Q71.28-6.01 71.21-4.59 71.14-3.17 70.8-1.83 70.45-0.49 69.72 0.49 68.99 1.46 67.67 1.46L67.67 1.46Q65.86 1.46 64.89 0.29 63.91-0.88 63.96-2.64L63.96-2.64Q62.4-1.27 60.42-0.49 58.44 0.29 56.39 0.29L56.39 0.29Q54.98 0.29 53.71-0.39 52.44-1.07 51.46-2.15 50.48-3.22 49.9-4.57 49.31-5.91 49.31-7.23L49.31-7.23Q49.31-9.57 50.75-11.33 52.19-13.09 54.29-14.33 56.39-15.58 58.76-16.31 61.13-17.04 62.98-17.29L62.98-17.29Q62.98-17.53 63.01-17.72 63.03-17.92 63.03-18.16L63.03-18.16Q63.03-19.68 62.2-20.61 61.37-21.53 59.86-21.53L59.86-21.53Q58.64-21.53 57.76-21.12 56.88-20.7 56.1-20.19 55.32-19.68 54.54-19.26 53.75-18.85 52.78-18.85L52.78-18.85Q51.7-18.85 50.95-19.53 50.19-20.21 50.19-21.29L50.19-21.29Q50.19-22.9 51.14-24.22 52.09-25.54 53.54-26.44 54.98-27.34 56.66-27.86 58.34-28.37 59.76-28.37L59.76-28.37Q61.08-28.37 62.4-28.05 63.72-27.73 64.89-27.08 66.06-26.42 67.01-25.46 67.96-24.51 68.55-23.24L68.55-23.24Q69.43-21.44 69.97-19.41 70.5-17.38 70.8-15.26 71.09-13.13 71.19-11.01 71.28-8.89 71.28-6.88ZM63.47-8.45L63.47-8.45 63.33-11.77Q63.23-11.77 63.13-11.79 63.03-11.82 62.93-11.82L62.93-11.82Q62.3-11.82 61.35-11.5 60.4-11.18 59.52-10.62 58.64-10.06 58.03-9.38 57.42-8.69 57.42-7.96L57.42-7.96Q57.42-7.28 57.91-7.03 58.39-6.79 59.03-6.79L59.03-6.79Q60.1-6.79 61.32-7.35 62.54-7.91 63.47-8.45ZM85.59 1.76L85.59 1.76Q82.12 1.76 80.19 0.85 78.26-0.05 77.31-1.71 76.36-3.37 76.16-5.71 75.97-8.06 75.97-10.94L75.97-10.94Q75.97-13.23 76.12-15.55 76.26-17.87 76.56-20.51L76.56-20.51Q75.87-20.51 75.48-20.48 75.09-20.46 74.85-20.46L74.85-20.46Q73.28-20.46 72.14-21.14 70.99-21.83 70.99-23.24L70.99-23.24Q70.99-24.12 71.65-24.8 72.31-25.49 73.33-25.98 74.36-26.46 75.55-26.76 76.75-27.05 77.82-27.15L77.82-27.15Q77.82-28.52 78.02-30.18 78.22-31.84 78.73-33.28 79.24-34.72 80.12-35.69 81-36.67 82.37-36.67L82.37-36.67Q83.15-36.67 83.76-36.21 84.37-35.74 84.76-35.03 85.15-34.33 85.34-33.45 85.54-32.57 85.54-31.74L85.54-31.74Q85.54-30.76 85.39-29.74 85.25-28.71 84.86-27.2L84.86-27.2Q85.69-27.29 85.98-27.32 86.27-27.34 86.52-27.34L86.52-27.34Q87.35-27.34 88.25-27.2 89.15-27.05 89.91-26.71 90.67-26.37 91.15-25.81 91.64-25.24 91.64-24.46L91.64-24.46Q91.64-23.58 90.93-22.9 90.23-22.22 89.15-21.73 88.08-21.24 86.86-20.97 85.64-20.7 84.56-20.61L84.56-20.61Q84.27-18.6 84.15-16.92 84.03-15.23 83.88-13.53L83.88-13.53Q83.78-12.7 83.71-11.84 83.64-10.99 83.64-10.11L83.64-10.11Q83.64-9.47 83.68-8.62 83.73-7.76 84.03-6.98 84.32-6.2 84.95-5.64 85.59-5.08 86.71-5.08L86.71-5.08Q87.39-5.08 88.13-5.2 88.86-5.32 89.59-5.32L89.59-5.32Q90.86-5.32 91.42-4.44 91.98-3.56 91.98-2.2L91.98-2.2Q91.98-1.17 91.37-0.42 90.76 0.34 89.84 0.81 88.91 1.27 87.76 1.51 86.61 1.76 85.59 1.76ZM130.9-17.14L130.9-17.14Q130.9-15.14 130.7-13.01 130.51-10.89 130.02-8.89 129.53-6.88 128.67-5.1 127.82-3.32 126.5-1.98 125.18-0.63 123.33 0.15 121.47 0.93 118.98 0.93L118.98 0.93Q115.32 0.93 112.61-0.78 109.9-2.49 108.09-5.15 106.29-7.81 105.41-11.11 104.53-14.4 104.53-17.63L104.53-17.63Q104.53-17.97 104.53-18.26 104.53-18.55 104.58-18.8L104.58-18.8Q104.63-19.82 104.75-21.58 104.87-23.34 105.16-25.34 105.46-27.34 105.92-29.44 106.38-31.54 107.14-33.2 107.9-34.86 108.97-35.94 110.05-37.01 111.51-37.01L111.51-37.01Q112.59-37.01 113.32-36.38 114.05-35.74 114.51-34.79 114.98-33.84 115.17-32.79 115.37-31.74 115.37-30.86L115.37-30.86Q115.37-29.54 115.1-28.2 114.83-26.86 114.59-25.54L114.59-25.54Q114.2-23.44 113.95-21.34 113.71-19.24 113.71-17.04L113.71-17.04Q113.71-15.92 113.83-14.31 113.95-12.7 114.44-11.21 114.93-9.72 115.83-8.67 116.74-7.62 118.3-7.62L118.3-7.62Q119.81-7.62 120.72-8.64 121.62-9.67 122.06-11.08 122.5-12.5 122.62-14.06 122.74-15.63 122.74-16.75L122.74-16.75Q122.74-19.97 122.2-23.12 121.67-26.27 120.79-29.39L120.79-29.39Q120.54-30.22 120.37-31.05 120.2-31.88 120.2-32.71L120.2-32.71Q120.2-34.08 121.01-35.11 121.81-36.13 123.28-36.13L123.28-36.13Q124.5-36.13 125.55-35.18 126.6-34.23 127.43-32.69 128.26-31.15 128.87-29.25 129.48-27.34 129.92-25.46 130.36-23.58 130.58-21.88 130.8-20.17 130.85-19.09L130.85-19.09Q130.9-18.6 130.9-18.14 130.9-17.68 130.9-17.14ZM156.48-14.55L156.48-14.55Q156.48-12.4 156.02-9.84 155.55-7.28 154.45-5.08 153.35-2.88 151.57-1.42 149.79 0.05 147.1 0.05L147.1 0.05Q146.42 0.05 145.69-0.05 144.96-0.15 144.3-0.39 143.64-0.63 143.1-1.05 142.56-1.46 142.27-2.15L142.27-2.15 141.83 4.88Q141.78 6.01 141.76 7.57 141.73 9.13 141.37 10.55 141 11.96 140.15 12.96 139.29 13.96 137.68 13.96L137.68 13.96Q136.75 13.96 136.12 13.01 135.48 12.06 135.12 10.6 134.75 9.13 134.56 7.32 134.36 5.52 134.31 3.86 134.26 2.2 134.26 0.83 134.26-0.54 134.26-1.17L134.26-1.17Q134.26-4.44 134.21-7.69 134.16-10.94 134.16-14.21L134.16-14.21Q134.16-14.79 134.16-16.04 134.16-17.29 134.26-18.75 134.36-20.21 134.58-21.78 134.8-23.34 135.24-24.63 135.68-25.93 136.36-26.73 137.05-27.54 138.02-27.54L138.02-27.54Q138.66-27.54 139.17-27.17 139.68-26.81 140.05-26.25 140.41-25.68 140.66-25.05 140.9-24.41 141.05-23.88L141.05-23.88Q142.56-25.59 144.54-26.46 146.52-27.34 148.76-27.34L148.76-27.34Q151.11-27.34 152.6-26.03 154.09-24.71 154.94-22.75 155.8-20.8 156.14-18.58 156.48-16.36 156.48-14.55ZM149.5-14.94L149.5-14.94Q149.5-15.67 149.37-16.43 149.25-17.19 148.94-17.85 148.62-18.51 148.03-18.92 147.45-19.34 146.57-19.34L146.57-19.34Q145.4-19.34 144.1-18.58 142.81-17.82 142.17-16.85L142.17-16.85Q141.93-16.46 141.88-15.58 141.83-14.7 141.83-14.26L141.83-14.26Q141.83-13.92 141.86-13.35 141.88-12.79 141.93-12.21 141.98-11.62 142.05-11.08 142.12-10.55 142.27-10.25L142.27-10.25Q142.42-9.81 142.9-9.45 143.39-9.08 143.98-8.79 144.57-8.5 145.18-8.35 145.79-8.2 146.23-8.2L146.23-8.2Q147.25-8.2 147.89-8.98 148.52-9.77 148.89-10.84 149.25-11.91 149.37-13.06 149.5-14.21 149.5-14.94ZM180.5-32.13L180.5-32.13Q180.5-28.56 180.23-25.05 179.96-21.53 179.96-17.97L179.96-17.97Q179.96-15.09 180.13-12.26 180.3-9.42 180.3-6.54L180.3-6.54Q180.3-5.76 180.26-4.66 180.21-3.56 179.94-2.54 179.67-1.51 179.06-0.78 178.45-0.05 177.33-0.05L177.33-0.05Q175.86-0.05 174.91-1.15 173.96-2.25 173.71-3.61L173.71-3.61Q172.79-1.86 171.03-0.63 169.27 0.59 167.22 0.59L167.22 0.59Q165.02 0.59 163.43-0.93 161.85-2.44 160.8-4.59 159.75-6.74 159.24-9.08 158.72-11.43 158.72-13.13L158.72-13.13Q158.72-14.36 158.87-15.92 159.02-17.48 159.38-19.09 159.75-20.7 160.33-22.24 160.92-23.78 161.82-25 162.73-26.22 163.97-26.95 165.22-27.69 166.83-27.69L166.83-27.69Q168.59-27.69 170.2-26.66 171.81-25.63 172.64-24.12L172.64-24.12 173.08-31.88Q173.13-32.81 173.22-34.06 173.32-35.3 173.64-36.43 173.96-37.55 174.64-38.33 175.32-39.11 176.64-39.11L176.64-39.11Q178.06-39.11 178.84-38.43 179.62-37.74 179.99-36.69 180.35-35.64 180.43-34.42 180.5-33.2 180.5-32.13ZM172.54-10.06L172.54-10.45Q172.54-11.57 172.49-12.65 172.44-13.72 172.49-14.84L172.49-14.84Q172.2-15.48 171.81-16.24 171.42-16.99 170.86-17.65 170.3-18.31 169.61-18.75 168.93-19.19 168.15-19.19L168.15-19.19Q167.27-19.19 166.73-18.65 166.19-18.12 165.95-17.36 165.71-16.6 165.63-15.72 165.56-14.84 165.56-14.21L165.56-14.21Q165.56-13.62 165.66-12.48 165.75-11.33 166.02-10.16 166.29-8.98 166.78-8.11 167.27-7.23 168.1-7.23L168.1-7.23Q168.73-7.23 169.37-7.5 170-7.76 170.56-8.18 171.13-8.59 171.64-9.11 172.15-9.62 172.54-10.06L172.54-10.06ZM204.47-6.88L204.47-6.88Q204.47-6.01 204.4-4.59 204.33-3.17 203.98-1.83 203.64-0.49 202.91 0.49 202.18 1.46 200.86 1.46L200.86 1.46Q199.05 1.46 198.08 0.29 197.1-0.88 197.15-2.64L197.15-2.64Q195.59-1.27 193.61-0.49 191.63 0.29 189.58 0.29L189.58 0.29Q188.16 0.29 186.89-0.39 185.62-1.07 184.65-2.15 183.67-3.22 183.09-4.57 182.5-5.91 182.5-7.23L182.5-7.23Q182.5-9.57 183.94-11.33 185.38-13.09 187.48-14.33 189.58-15.58 191.95-16.31 194.32-17.04 196.17-17.29L196.17-17.29Q196.17-17.53 196.2-17.72 196.22-17.92 196.22-18.16L196.22-18.16Q196.22-19.68 195.39-20.61 194.56-21.53 193.05-21.53L193.05-21.53Q191.83-21.53 190.95-21.12 190.07-20.7 189.29-20.19 188.51-19.68 187.72-19.26 186.94-18.85 185.97-18.85L185.97-18.85Q184.89-18.85 184.14-19.53 183.38-20.21 183.38-21.29L183.38-21.29Q183.38-22.9 184.33-24.22 185.28-25.54 186.72-26.44 188.16-27.34 189.85-27.86 191.53-28.37 192.95-28.37L192.95-28.37Q194.27-28.37 195.59-28.05 196.9-27.73 198.08-27.08 199.25-26.42 200.2-25.46 201.15-24.51 201.74-23.24L201.74-23.24Q202.62-21.44 203.15-19.41 203.69-17.38 203.98-15.26 204.28-13.13 204.37-11.01 204.47-8.89 204.47-6.88ZM196.66-8.45L196.66-8.45 196.51-11.77Q196.42-11.77 196.32-11.79 196.22-11.82 196.12-11.82L196.12-11.82Q195.49-11.82 194.54-11.5 193.58-11.18 192.7-10.62 191.83-10.06 191.22-9.38 190.61-8.69 190.61-7.96L190.61-7.96Q190.61-7.28 191.09-7.03 191.58-6.79 192.22-6.79L192.22-6.79Q193.29-6.79 194.51-7.35 195.73-7.91 196.66-8.45ZM218.78 1.76L218.78 1.76Q215.31 1.76 213.38 0.85 211.45-0.05 210.5-1.71 209.55-3.37 209.35-5.71 209.16-8.06 209.16-10.94L209.16-10.94Q209.16-13.23 209.3-15.55 209.45-17.87 209.74-20.51L209.74-20.51Q209.06-20.51 208.67-20.48 208.28-20.46 208.03-20.46L208.03-20.46Q206.47-20.46 205.32-21.14 204.18-21.83 204.18-23.24L204.18-23.24Q204.18-24.12 204.84-24.8 205.5-25.49 206.52-25.98 207.55-26.46 208.74-26.76 209.94-27.05 211.01-27.15L211.01-27.15Q211.01-28.52 211.21-30.18 211.4-31.84 211.92-33.28 212.43-34.72 213.31-35.69 214.19-36.67 215.55-36.67L215.55-36.67Q216.33-36.67 216.95-36.21 217.56-35.74 217.95-35.03 218.34-34.33 218.53-33.45 218.73-32.57 218.73-31.74L218.73-31.74Q218.73-30.76 218.58-29.74 218.43-28.71 218.04-27.2L218.04-27.2Q218.87-27.29 219.17-27.32 219.46-27.34 219.7-27.34L219.7-27.34Q220.53-27.34 221.44-27.2 222.34-27.05 223.1-26.71 223.85-26.37 224.34-25.81 224.83-25.24 224.83-24.46L224.83-24.46Q224.83-23.58 224.12-22.9 223.42-22.22 222.34-21.73 221.27-21.24 220.05-20.97 218.83-20.7 217.75-20.61L217.75-20.61Q217.46-18.6 217.34-16.92 217.21-15.23 217.07-13.53L217.07-13.53Q216.97-12.7 216.9-11.84 216.82-10.99 216.82-10.11L216.82-10.11Q216.82-9.47 216.87-8.62 216.92-7.76 217.21-6.98 217.51-6.2 218.14-5.64 218.78-5.08 219.9-5.08L219.9-5.08Q220.58-5.08 221.32-5.2 222.05-5.32 222.78-5.32L222.78-5.32Q224.05-5.32 224.61-4.44 225.17-3.56 225.17-2.2L225.17-2.2Q225.17-1.17 224.56-0.42 223.95 0.34 223.02 0.81 222.1 1.27 220.95 1.51 219.8 1.76 218.78 1.76ZM246.61-8.69L246.61-8.69Q246.61-7.03 245.56-5.44 244.51-3.86 242.92-2.61 241.33-1.37 239.53-0.61 237.72 0.15 236.21 0.15L236.21 0.15Q233.62 0.15 231.59-1.15 229.56-2.44 228.2-4.44 226.83-6.45 226.12-8.86 225.41-11.28 225.41-13.57L225.41-13.57Q225.41-16.02 226.1-18.8 226.78-21.58 228.17-23.93 229.56-26.27 231.69-27.83 233.81-29.39 236.74-29.39L236.74-29.39Q238.4-29.39 239.92-28.83 241.43-28.27 242.55-27.25 243.68-26.22 244.36-24.8 245.04-23.39 245.04-21.63L245.04-21.63Q245.04-19.34 244.07-17.33 243.09-15.33 241.48-13.87 239.87-12.4 237.77-11.5 235.67-10.6 233.47-10.5L233.47-10.5Q233.67-9.08 234.62-8.45 235.57-7.81 236.89-7.81L236.89-7.81Q237.87-7.81 238.79-8.3 239.72-8.79 240.6-9.4 241.48-10.01 242.33-10.5 243.19-10.99 244.07-10.99L244.07-10.99Q245.04-10.99 245.82-10.35 246.61-9.72 246.61-8.69ZM238.7-20.65L238.7-20.65Q238.7-21.29 238.35-21.97 238.01-22.66 237.28-22.66L237.28-22.66Q236.21-22.66 235.47-22.09 234.74-21.53 234.25-20.68 233.76-19.82 233.5-18.85 233.23-17.87 233.18-17.04L233.18-17.04Q233.86-17.19 234.81-17.43 235.77-17.68 236.62-18.09 237.48-18.51 238.09-19.14 238.7-19.78 238.7-20.65ZM280.24-35.25L280.24-35.25Q280.24-33.4 278.97-31.88 277.7-30.37 275.87-29.17 274.04-27.98 272.04-27.1 270.04-26.22 268.57-25.63L268.57-25.63Q268.57-24.61 268.52-23.54 268.48-22.46 268.38-21.39L268.38-21.39Q269.94-22.17 271.89-22.85 273.85-23.54 275.6-23.54L275.6-23.54Q277.02-23.54 277.92-22.95 278.83-22.36 278.83-20.9L278.83-20.9Q278.83-19.29 277.68-18.02 276.53-16.75 274.92-15.77 273.31-14.79 271.55-14.11 269.79-13.43 268.57-13.04L268.57-13.04Q268.57-11.43 268.52-9.84 268.48-8.25 268.38-6.69L268.38-6.69Q268.33-5.91 268.21-4.74 268.09-3.56 267.72-2.47 267.35-1.37 266.67-0.56 265.99 0.24 264.91 0.24L264.91 0.24Q263.89 0.24 263.15-0.76 262.42-1.76 261.91-3.32 261.4-4.88 261.08-6.81 260.76-8.74 260.59-10.6 260.42-12.45 260.39-14.01 260.37-15.58 260.37-16.41L260.37-16.41Q260.37-17.04 260.39-18.29 260.42-19.53 260.44-21.04 260.47-22.56 260.54-24.22 260.61-25.88 260.71-27.37 260.81-28.86 260.98-30 261.15-31.15 261.4-31.69L261.4-31.69Q261.93-32.76 263.96-33.81 265.99-34.86 268.48-35.67 270.97-36.47 273.33-36.99 275.7-37.5 276.97-37.5L276.97-37.5Q277.56-37.5 278.12-37.43 278.68-37.35 279.17-37.11 279.66-36.87 279.95-36.43 280.24-35.99 280.24-35.25ZM297.43-18.26L297.43-18.26Q296.74-18.21 296.26-18.38 295.77-18.55 295.28-18.75L295.28-18.75Q294.84-18.95 294.4-19.12 293.96-19.29 293.42-19.24L293.42-19.24Q292.45-19.19 291.69-18.7 290.93-18.21 290.32-17.48 289.71-16.75 289.27-15.84 288.83-14.94 288.59-14.06L288.59-14.06Q288.44-13.48 288.37-12.28 288.3-11.08 288.3-9.72L288.3-9.72Q288.25-8.3 288.25-7.03 288.25-5.76 288.15-5.03L288.15-5.03Q288.1-4.25 287.91-3.2 287.71-2.15 287.3-1.22 286.88-0.29 286.2 0.34 285.51 0.98 284.44 0.98L284.44 0.98Q283.61 0.98 283 0.49 282.39 0 281.97-0.81 281.56-1.61 281.29-2.69 281.02-3.76 280.88-4.88L280.88-4.88Q280.73-6.05 280.66-7.23 280.58-8.4 280.56-9.45 280.53-10.5 280.56-11.38 280.58-12.26 280.58-12.79L280.58-12.79Q280.53-14.5 280.41-16.24 280.29-17.97 280.29-19.68L280.29-19.68Q280.29-20.75 280.39-22.07 280.49-23.39 280.92-24.54 281.36-25.68 282.22-26.46 283.07-27.25 284.59-27.25L284.59-27.25Q285.42-27.25 286-26.71 286.59-26.17 286.95-25.39 287.32-24.61 287.52-23.73 287.71-22.85 287.76-22.12L287.76-22.12Q288.93-24.02 290.4-25.22 291.86-26.42 294.21-26.51L294.21-26.51Q295.38-26.56 296.53-26.29 297.67-26.03 298.62-25.42 299.58-24.8 300.19-23.83 300.8-22.85 300.85-21.53L300.85-21.53Q300.94-19.97 299.92-19.14 298.89-18.31 297.43-18.26ZM310.85 1.42L310.85 1.42Q308.36 1.42 306.51 0.1 304.65-1.22 303.38-3.27 302.11-5.32 301.48-7.84 300.84-10.35 300.84-12.79L300.84-12.79Q300.84-15.38 301.48-18.14 302.11-20.9 303.43-23.17 304.75-25.44 306.8-26.88 308.85-28.32 311.68-28.32L311.68-28.32Q314.42-28.32 316.35-26.83 318.28-25.34 319.45-23.12 320.62-20.9 321.11-18.26 321.6-15.63 321.45-13.28L321.45-13.28Q321.3-10.69 320.64-8.06 319.98-5.42 318.72-3.32 317.45-1.22 315.49 0.1 313.54 1.42 310.85 1.42ZM311.34-20.65L311.34-20.65Q310.61-20.65 310.05-19.87 309.49-19.09 309.12-17.97 308.75-16.85 308.56-15.6 308.36-14.36 308.36-13.43L308.36-13.43Q308.36-12.26 308.58-10.89 308.8-9.52 309.19-8.37 309.58-7.23 310.15-6.47 310.71-5.71 311.44-5.71L311.44-5.71Q312.22-5.71 312.78-6.45 313.34-7.18 313.69-8.3 314.03-9.42 314.17-10.77 314.32-12.11 314.32-13.28L314.32-13.28Q314.32-14.36 314.13-15.65 313.93-16.94 313.56-18.07 313.2-19.19 312.64-19.92 312.07-20.65 311.34-20.65ZM353.58-16.11L353.58-16.11Q353.58-15.19 353.58-13.6 353.58-12.01 353.5-10.16 353.43-8.3 353.19-6.42 352.94-4.54 352.43-3.03 351.92-1.51 351.13-0.54 350.35 0.44 349.13 0.44L349.13 0.44Q348.06 0.44 347.5-0.46 346.94-1.37 346.69-2.59 346.45-3.81 346.42-5.08 346.4-6.35 346.4-7.08L346.4-7.08Q346.4-9.28 346.54-11.38 346.69-13.48 346.69-15.67L346.69-15.67Q346.69-15.92 346.69-16.55 346.69-17.19 346.59-17.82 346.5-18.46 346.28-18.95 346.06-19.43 345.62-19.43L345.62-19.43Q344.74-19.43 344.2-18.53 343.66-17.63 343.32-16.41 342.98-15.19 342.83-13.99 342.69-12.79 342.64-12.21L342.64-12.21Q342.54-11.57 342.47-10.3 342.39-9.03 342.27-7.52 342.15-6.01 341.88-4.42 341.61-2.83 341.2-1.54 340.78-0.24 340.15 0.59 339.51 1.42 338.59 1.42L338.59 1.42Q337.41 1.42 336.78 0.39 336.14-0.63 335.85-2 335.56-3.37 335.48-4.79 335.41-6.2 335.41-6.98L335.41-6.98Q335.41-7.81 335.44-8.59 335.46-9.38 335.46-10.21L335.46-10.21Q335.46-10.55 335.46-11.33 335.46-12.11 335.44-13.06 335.41-14.01 335.34-15.04 335.27-16.06 335.12-16.92 334.97-17.77 334.68-18.31 334.39-18.85 334-18.85L334-18.85Q333.36-18.85 332.82-18.04 332.29-17.24 331.9-16.14 331.51-15.04 331.29-13.96 331.07-12.89 331.07-12.4L331.07-12.4 331.07-12.11Q331.07-9.77 331.36-7.52 331.65-5.27 331.65-2.93L331.65-2.93Q331.65-1.56 330.77-0.42 329.89 0.73 328.33 0.73L328.33 0.73Q327.21 0.73 326.48-0.12 325.74-0.98 325.26-2.34 324.77-3.71 324.5-5.35 324.23-6.98 324.13-8.57 324.03-10.16 324.01-11.45 323.99-12.74 323.99-13.38L323.99-13.38Q323.99-14.11 323.96-15.53 323.94-16.94 324.01-18.6 324.08-20.26 324.28-22 324.47-23.73 324.91-25.15 325.35-26.56 326.06-27.47 326.77-28.37 327.89-28.37L327.89-28.37Q329.16-28.37 329.97-27.69 330.77-27 330.77-25.63L330.77-25.63Q330.77-25.34 330.75-25.05 330.72-24.76 330.68-24.51L330.68-24.51Q331.21-25.29 331.99-26.1 332.78-26.9 333.68-27.56 334.58-28.22 335.61-28.64 336.63-29.05 337.66-29.05L337.66-29.05Q338.63-29.05 339.42-28.52 340.2-27.98 340.78-27.17 341.37-26.37 341.76-25.44 342.15-24.51 342.3-23.68L342.3-23.68Q342.78-24.56 343.49-25.46 344.2-26.37 345.03-27.05 345.86-27.73 346.86-28.17 347.86-28.61 348.94-28.61L348.94-28.61Q349.96-28.61 350.69-27.88 351.43-27.15 351.96-26 352.5-24.85 352.79-23.41 353.09-21.97 353.28-20.58 353.48-19.19 353.53-17.99 353.58-16.8 353.58-16.11ZM393.22-7.23L393.22-7.23Q393.22-6.25 393.05-4.88 392.88-3.52 392.39-2.27 391.9-1.03 391.07-0.17 390.24 0.68 388.87 0.68L388.87 0.68Q387.07 0.68 386.16-0.63 385.26-1.95 384.87-3.78 384.48-5.62 384.41-7.52 384.33-9.42 384.28-10.55L384.28-10.55Q380.77-9.96 377.35-9.52L377.35-9.52Q377.25-8.4 376.94-6.74 376.62-5.08 375.96-3.54 375.3-2 374.25-0.88 373.2 0.24 371.69 0.24L371.69 0.24Q370.51 0.24 369.85-0.61 369.2-1.46 368.85-2.64 368.51-3.81 368.44-5.05 368.37-6.3 368.37-7.13L368.37-7.13Q368.37-9.91 368.81-12.62 369.24-15.33 369.83-18.02L369.83-18.02Q370.12-19.43 370.61-21.34 371.1-23.24 371.81-25.27 372.52-27.29 373.47-29.27 374.42-31.25 375.64-32.81 376.86-34.38 378.42-35.35 379.99-36.33 381.89-36.33L381.89-36.33Q383.75-36.33 385.11-35.5 386.48-34.67 387.51-33.3 388.53-31.93 389.22-30.2 389.9-28.47 390.36-26.68 390.83-24.9 391.14-23.19 391.46-21.48 391.71-20.17L391.71-20.17Q392.34-16.99 392.78-13.75 393.22-10.5 393.22-7.23ZM383.8-17.68L383.8-19.09Q383.8-19.68 383.72-21.02 383.65-22.36 383.4-23.71 383.16-25.05 382.65-26.1 382.14-27.15 381.26-27.15L381.26-27.15Q380.77-27.15 380.33-26.49 379.89-25.83 379.55-24.83 379.21-23.83 378.94-22.61 378.67-21.39 378.47-20.26 378.28-19.14 378.18-18.24 378.08-17.33 378.03-16.94L378.03-16.94Q380.96-17.19 383.8-17.68L383.8-17.68ZM410.7-26.86L410.7-26.86Q410.7-25.44 409.75-24.76 408.79-24.07 407.62-23.46 406.45-22.85 405.5-22.02 404.54-21.19 404.54-19.53L404.54-19.53Q404.54-18.65 404.96-18.02 405.37-17.38 405.99-16.87 406.6-16.36 407.33-15.82 408.06-15.28 408.67-14.6 409.28-13.92 409.7-12.94 410.11-11.96 410.11-10.55L410.11-10.55Q410.11-8.5 409.06-6.52 408.01-4.54 406.38-3 404.74-1.46 402.69-0.54 400.64 0.39 398.64 0.39L398.64 0.39Q397.81 0.39 396.98 0.27 396.15 0.15 395.49-0.2 394.83-0.54 394.39-1.15 393.95-1.76 393.95-2.73L393.95-2.73Q393.95-4.1 394.49-4.86 395.02-5.62 395.85-6.05 396.68-6.49 397.64-6.74 398.59-6.98 399.42-7.35 400.25-7.71 400.79-8.3 401.32-8.89 401.32-9.96L401.32-9.96Q401.32-10.99 400.52-12.08 399.71-13.18 398.73-14.43 397.76-15.67 396.95-17.09 396.15-18.51 396.15-20.21L396.15-20.21Q396.15-22.31 397-24.1 397.86-25.88 399.3-27.2 400.74-28.52 402.59-29.27 404.45-30.03 406.5-30.03L406.5-30.03Q407.28-30.03 408.04-29.88 408.79-29.74 409.38-29.37 409.96-29 410.33-28.39 410.7-27.78 410.7-26.86ZM434.82-12.65L434.82-12.65Q434.82-11.82 434.79-10.18 434.77-8.54 434.64-6.76 434.52-4.98 434.33-3.39 434.13-1.81 433.84-1.07L433.84-1.07Q433.45-0.15 432.81 0.54 432.18 1.22 431.1 1.22L431.1 1.22Q429.44 1.22 428.71-0.1 427.98-1.42 427.74-3.37 427.49-5.32 427.54-7.62 427.59-9.91 427.49-11.87 427.39-13.82 426.95-15.14 426.52-16.46 425.34-16.46L425.34-16.46Q423.73-16.46 422.88-15.94 422.02-15.43 421.66-14.6 421.29-13.77 421.22-12.7 421.14-11.62 421.05-10.45L421.05-10.45Q420.95-9.33 420.9-7.42 420.85-5.52 420.46-3.66 420.07-1.81 419.17-0.46 418.26 0.88 416.51 0.88L416.51 0.88Q415.43 0.88 414.77 0.05 414.11-0.78 413.72-2.1 413.33-3.42 413.16-5.03 412.99-6.64 412.97-8.18 412.94-9.72 412.97-10.99 412.99-12.26 412.99-12.89L412.99-12.89Q412.99-13.87 413.06-16.11 413.14-18.36 413.38-21.12 413.62-23.88 414.02-26.81 414.41-29.74 415.04-32.15 415.68-34.57 416.58-36.08 417.48-37.6 418.7-37.55L418.7-37.55Q419.48-37.5 420.05-36.87 420.61-36.23 420.97-35.23 421.34-34.23 421.58-33.06 421.83-31.88 421.95-30.74 422.07-29.59 422.1-28.61 422.12-27.64 422.12-27.1L422.12-27.1Q422.12-25.83 422.07-24.56 422.02-23.29 421.93-22.02L421.93-22.02Q423.05-23.54 424.93-24.51 426.81-25.49 428.71-25.49L428.71-25.49Q431.15-25.49 432.4-24.15 433.64-22.8 434.18-20.83 434.72-18.85 434.77-16.63 434.82-14.4 434.82-12.65ZM447.56 1.42L447.56 1.42Q445.07 1.42 443.21 0.1 441.36-1.22 440.09-3.27 438.82-5.32 438.18-7.84 437.55-10.35 437.55-12.79L437.55-12.79Q437.55-15.38 438.18-18.14 438.82-20.9 440.14-23.17 441.45-25.44 443.5-26.88 445.56-28.32 448.39-28.32L448.39-28.32Q451.12-28.32 453.05-26.83 454.98-25.34 456.15-23.12 457.32-20.9 457.81-18.26 458.3-15.63 458.15-13.28L458.15-13.28Q458.01-10.69 457.35-8.06 456.69-5.42 455.42-3.32 454.15-1.22 452.2 0.1 450.24 1.42 447.56 1.42ZM448.05-20.65L448.05-20.65Q447.31-20.65 446.75-19.87 446.19-19.09 445.82-17.97 445.46-16.85 445.26-15.6 445.07-14.36 445.07-13.43L445.07-13.43Q445.07-12.26 445.29-10.89 445.51-9.52 445.9-8.37 446.29-7.23 446.85-6.47 447.41-5.71 448.14-5.71L448.14-5.71Q448.92-5.71 449.49-6.45 450.05-7.18 450.39-8.3 450.73-9.42 450.88-10.77 451.02-12.11 451.02-13.28L451.02-13.28Q451.02-14.36 450.83-15.65 450.63-16.94 450.27-18.07 449.9-19.19 449.34-19.92 448.78-20.65 448.05-20.65ZM482.32-26.27L482.32-26.27Q482.32-24.9 481.61-23.49 480.9-22.07 479.9-20.68 478.9-19.29 477.8-18.04 476.71-16.8 475.88-15.77L475.88-15.77Q476.56-14.7 477.58-12.92 478.61-11.13 479.54-9.13 480.47-7.13 481.12-5.22 481.78-3.32 481.78-2.05L481.78-2.05Q481.78-1.03 481.15-0.17 480.51 0.68 479.39 0.68L479.39 0.68Q478.56 0.68 477.71-0.02 476.85-0.73 476-1.88 475.14-3.03 474.36-4.44 473.58-5.86 472.92-7.23 472.26-8.59 471.75-9.79 471.24-10.99 470.94-11.72L470.94-11.72Q470.31-11.08 469.6-10.67 468.89-10.25 468.21-9.72L468.21-9.72Q468.21-8.69 468.14-6.84 468.06-4.98 467.7-3.17 467.33-1.37 466.5-0.02 465.67 1.32 464.06 1.32L464.06 1.32Q462.79 1.32 462.11 0.17 461.42-0.98 461.1-2.51 460.79-4.05 460.74-5.64 460.69-7.23 460.69-8.06L460.69-8.06Q460.69-11.67 460.89-15.28 461.08-18.9 461.13-22.51L461.13-22.51Q461.13-23.34 461.15-24.68 461.18-26.03 461.32-27.59 461.47-29.15 461.76-30.76 462.06-32.37 462.59-33.67 463.13-34.96 463.99-35.77 464.84-36.57 466.06-36.57L466.06-36.57Q466.94-36.57 467.55-35.91 468.16-35.25 468.53-34.23 468.89-33.2 469.06-31.93 469.23-30.66 469.31-29.42 469.38-28.17 469.38-27.1 469.38-26.03 469.38-25.39L469.38-25.39Q469.38-24.95 469.36-24.1 469.33-23.24 469.31-22.31 469.28-21.39 469.28-20.61 469.28-19.82 469.38-19.48L469.38-19.48Q469.72-19.48 470.41-20.14 471.09-20.8 471.99-21.83 472.9-22.85 473.95-24 475-25.15 476.09-26.17 477.19-27.2 478.27-27.86 479.34-28.52 480.27-28.52L480.27-28.52Q481.25-28.52 481.78-27.83 482.32-27.15 482.32-26.27Z" opacity="1" transform="matrix(1,0,0,1,0,0)" fill="#001f3f" class="slogan-text-1" data-fill-palette-color="secondary" id="text-1"></path></svg></g></svg></g></svg></g></svg></g><g></g></svg></g></svg></g></svg></g><g mask="url(&quot;#71c999e3-a952-4dee-9202-f2c5ac314011&quot;)"><g transform="matrix(2.5278350515463917, 0, 0, 2.5278350515463917, 128.8764948453608, 1)"><svg xmlns:sketch="http://www.bohemiancoding.com/sketch/ns" xmlns="http://www.w3.org/2000/svg" xmlns:xlink="http://www.w3.org/1999/xlink" version="1.1" x="0" y="0" viewBox="-405.5 472.29998779296875 54.5 97" style="enable-background:new -429 470.8 100 100;" xml:space="preserve" height="97" width="54.5" class="icon-none" data-fill-palette-color="accent" id="none"><path d="M-366.8 511.1c0.4 0 0.8-0.1 1.1-0.4l1.8-1.8c0.6-0.6 0.6-1.5 0-2.1s-1.5-0.6-2.1 0l-1.8 1.8c-0.6 0.6-0.6 1.5 0 2.1C-367.6 511-367.2 511.1-366.8 511.1zM-376 507.3c0.8 0 1.5-0.7 1.5-1.5v-3c0-0.8-0.7-1.5-1.5-1.5s-1.5 0.7-1.5 1.5v3C-377.5 506.7-376.8 507.3-376 507.3zM-360 517.3h-3c-0.8 0-1.5 0.7-1.5 1.5s0.7 1.5 1.5 1.5h3c0.8 0 1.5-0.7 1.5-1.5S-359.2 517.3-360 517.3zM-386.3 510.7c0.3 0.3 0.7 0.4 1.1 0.4s0.8-0.1 1.1-0.4c0.6-0.6 0.6-1.5 0-2.1l-1.8-1.8c-0.6-0.6-1.5-0.6-2.1 0-0.6 0.6-0.6 1.5 0 2.1L-386.3 510.7zM-352.5 505.8v-5c0-5.3-3.7-9.8-8.6-11.1-0.9-2.6-1.4-6.7-1.4-9.9 0-4.1-3.4-7.5-7.5-7.5h-18c-4.1 0-7.5 3.4-7.5 7.5 0 3.2-0.5 7.3-1.4 9.9-4.9 1.3-8.6 5.8-8.6 11.1v40c0 5.3 3.7 9.8 8.6 11.1 0.9 2.6 1.4 6.7 1.4 9.9 0 4.1 3.4 7.5 7.5 7.5h18c4.1 0 7.5-3.4 7.5-7.5 0-3.2 0.5-7.3 1.4-9.9 4.9-1.3 8.6-5.8 8.6-11.1v-25c0.8 0 1.5-0.7 1.5-1.5v-7C-351 506.5-351.7 505.8-352.5 505.8zM-392.5 479.8c0-2.5 2-4.5 4.5-4.5h18c2.5 0 4.5 2 4.5 4.5 0 1.4 0.1 5.8 1.1 9.5h-29.3C-392.6 485.6-392.5 481.2-392.5 479.8zM-365.5 561.8c0 2.5-2 4.5-4.5 4.5h-18c-2.5 0-4.5-2-4.5-4.5 0-1.4-0.1-5.8-1.1-9.5h29.3C-365.4 556.1-365.5 560.4-365.5 561.8zM-355.5 540.8c0 4.7-3.8 8.5-8.5 8.5h-30c-4.7 0-8.5-3.8-8.5-8.5v-40c0-4.7 3.8-8.5 8.5-8.5h30c4.7 0 8.5 3.8 8.5 8.5V540.8zM-368.7 524.9c1.4-1.7 2.2-3.8 2.2-6.1 0-5.2-4.3-9.5-9.5-9.5-4.6 0-8.4 3.2-9.3 7.5-0.1 0-0.1 0-0.2 0-6.6 0-12 5.4-12 12 0 6.6 5.4 12 12 12h11c5 0 9-4 9-9C-365.5 529.1-366.8 526.6-368.7 524.9zM-376 512.3c3.6 0 6.5 2.9 6.5 6.5 0 1.8-0.7 3.4-1.9 4.6-1-0.4-2-0.6-3.1-0.6h-0.6c-1.6-2.7-4.1-4.7-7.2-5.6C-381.6 514.4-379 512.3-376 512.3zM-374.5 537.8h-11c-5 0-9-4-9-9 0-5 4-9 9-9 3.2 0 6.2 1.7 7.8 4.5l0.9 1.5h2.3c3.3 0 6 2.7 6 6S-371.2 537.8-374.5 537.8z" fill="#ff4993" data-fill-palette-color="accent"></path></svg></g></g><mask id="71c999e3-a952-4dee-9202-f2c5ac314011"><rect width="640" height="400" fill="white"></rect><g transform="matrix(1,0,0,1,39.55199999999999,82.14267593479721)"><svg viewBox="0 0 316.416 82.91464813040555" height="82.91464813040555" width="316.416"><g><svg viewBox="0 0 316.416 82.91464813040555" height="82.91464813040555" width="316.416"><g><svg viewBox="0 0 316.416 82.91464813040555" height="82.91464813040555" width="316.416"><g><svg viewBox="0 0 316.416 82.91464813040555" height="82.91464813040555" width="316.416"><g id="SvgjsG2631"><svg viewBox="0 0 316.416 82.91464813040555" height="82.91464813040555" width="316.416" id="SvgjsSvg2630"><g><svg viewBox="0 0 316.416 49.43670948419301" height="49.43670948419301" width="316.416"><g transform="matrix(1,0,0,1,0,0)"><svg width="316.416" viewBox="-3.049999952316284 -42.70000076293945 302.0799865722656 47.95000076293945" height="49.43670948419301" data-palette-color="#0074d9"><g class="wordmark-text-0" data-fill-palette-color="primary" id="SvgjsG2629"><path d="M13.3-20.7L17.3-20.7 23.4-6.75 22.5-6.65 28.2-20.7 32.75-20.7 23.25 1.25 16.6-12.95 10.55 1.25 0.95-20.7 5.5-20.7 11.95-6.1 10.35-6.4 14.95-17.1 13.3-20.7ZM47.35 0.5L47.35 0.5Q43.8 0.5 41.25-0.93 38.7-2.35 37.32-4.83 35.95-7.3 35.95-10.5L35.95-10.5Q35.95-13.55 37.5-16.05 39.05-18.55 41.65-20.05 44.25-21.55 47.45-21.55L47.45-21.55Q51.55-21.55 54.25-19.15 56.95-16.75 57.9-12.55L57.9-12.55 40.85-6.55 39.75-9.3 53.75-14.4 52.75-13.75Q52.15-15.4 50.75-16.63 49.35-17.85 47.1-17.85L47.1-17.85Q45.2-17.85 43.7-16.93 42.2-16 41.35-14.4 40.5-12.8 40.5-10.75L40.5-10.75Q40.5-8.6 41.4-6.98 42.3-5.35 43.87-4.42 45.45-3.5 47.45-3.5L47.45-3.5Q48.8-3.5 50.07-4 51.35-4.5 52.45-5.3L52.45-5.3 54.6-1.85Q53.05-0.8 51.12-0.15 49.2 0.5 47.35 0.5ZM72.35 0.5L72.35 0.5Q69.45 0.5 67.07-0.75 64.7-2 63.32-4.42 61.95-6.85 61.95-10.35L61.95-10.35Q61.95-13.8 63.4-16.32 64.85-18.85 67.27-20.2 69.7-21.55 72.6-21.55L72.6-21.55Q75.5-21.55 77.5-20.23 79.5-18.9 80.55-17.1L80.55-17.1 80.25-16.3 80.7-20.7 85-20.7 85 0 80.35 0 80.35-5.4 80.85-4.2Q80.65-3.7 79.97-2.93 79.3-2.15 78.17-1.35 77.05-0.55 75.6-0.03 74.15 0.5 72.35 0.5ZM73.6-3.35L73.6-3.35Q75.35-3.35 76.75-4 78.15-4.65 79.07-5.83 80-7 80.35-8.65L80.35-8.65 80.35-12.7Q79.95-14.2 78.95-15.33 77.95-16.45 76.55-17.07 75.15-17.7 73.45-17.7L73.45-17.7Q71.6-17.7 70.05-16.8 68.5-15.9 67.57-14.3 66.65-12.7 66.65-10.55L66.65-10.55Q66.65-8.55 67.6-6.9 68.55-5.25 70.15-4.3 71.75-3.35 73.6-3.35ZM95.04-20.6L95.04-29.8 99.69-29.8 99.69-20.6 105.39-20.6 105.39-16.95 99.69-16.95 99.69 0 95.04 0 95.04-16.95 91.24-16.95 91.24-20.6 95.04-20.6ZM115.64 0L110.99 0 110.99-38.7 115.54-38.7 115.54-15.9 115.44-16.75Q116.49-18.8 118.67-20.15 120.84-21.5 123.79-21.5L123.79-21.5Q126.74-21.5 128.62-19.78 130.49-18.05 130.54-15.3L130.54-15.3 130.54 0 125.84 0 125.84-13.65Q125.79-15.35 124.87-16.43 123.94-17.5 121.99-17.5L121.99-17.5Q120.19-17.5 118.74-16.48 117.29-15.45 116.47-13.7 115.64-11.95 115.64-9.7L115.64-9.7 115.64 0ZM148.24 0.5L148.24 0.5Q144.69 0.5 142.14-0.93 139.59-2.35 138.21-4.83 136.84-7.3 136.84-10.5L136.84-10.5Q136.84-13.55 138.39-16.05 139.94-18.55 142.54-20.05 145.14-21.55 148.34-21.55L148.34-21.55Q152.44-21.55 155.14-19.15 157.84-16.75 158.79-12.55L158.79-12.55 141.74-6.55 140.64-9.3 154.64-14.4 153.64-13.75Q153.04-15.4 151.64-16.63 150.24-17.85 147.99-17.85L147.99-17.85Q146.09-17.85 144.59-16.93 143.09-16 142.24-14.4 141.39-12.8 141.39-10.75L141.39-10.75Q141.39-8.6 142.29-6.98 143.19-5.35 144.76-4.42 146.34-3.5 148.34-3.5L148.34-3.5Q149.69-3.5 150.96-4 152.24-4.5 153.34-5.3L153.34-5.3 155.49-1.85Q153.94-0.8 152.01-0.15 150.09 0.5 148.24 0.5ZM164.64-20.7L168.78-20.7 169.24-14.7 168.99-15.5Q169.78-17.4 171.31-18.73 172.84-20.05 174.51-20.78 176.19-21.5 177.44-21.5L177.44-21.5 177.19-16.9Q174.84-17.05 173.06-16 171.28-14.95 170.26-13.2 169.24-11.45 169.24-9.45L169.24-9.45 169.24 0 164.64 0 164.64-20.7Z" fill="#0074d9" data-fill-palette-color="primary" stroke-width="7" stroke="black" stroke-linejoin="round"></path><path d="M195.89-4.85L198.29-1.9Q196.89-0.8 194.94-0.15 192.99 0.5 191.04 0.5L191.04 0.5Q187.64 0.5 185.09-0.85 182.54-2.2 181.12-4.63 179.69-7.05 179.69-10.35L179.69-10.35Q179.69-13.65 181.22-16.1 182.74-18.55 185.22-19.88 187.69-21.2 190.54-21.2L190.54-21.2Q193.04-21.2 195.01-20.5 196.99-19.8 198.39-18.6L198.39-18.6 196.09-15.6Q195.19-16.3 193.89-16.85 192.59-17.4 190.94-17.4L190.94-17.4Q189.14-17.4 187.62-16.48 186.09-15.55 185.22-13.95 184.34-12.35 184.34-10.35L184.34-10.35Q184.34-8.45 185.24-6.83 186.14-5.2 187.74-4.28 189.34-3.35 191.39-3.35L191.39-3.35Q192.74-3.35 193.87-3.75 194.99-4.15 195.89-4.85L195.89-4.85ZM202.49-10.55L202.49-10.55Q202.49-13.65 203.96-16.15 205.44-18.65 208.04-20.1 210.64-21.55 213.94-21.55L213.94-21.55Q217.34-21.55 219.89-20.1 222.44-18.65 223.84-16.15 225.24-13.65 225.24-10.55L225.24-10.55Q225.24-7.45 223.84-4.93 222.44-2.4 219.86-0.95 217.29 0.5 213.89 0.5L213.89 0.5Q210.59 0.5 208.01-0.88 205.44-2.25 203.96-4.73 202.49-7.2 202.49-10.55ZM207.14-10.5L207.14-10.5Q207.14-8.5 208.04-6.88 208.94-5.25 210.46-4.3 211.99-3.35 213.84-3.35L213.84-3.35Q215.79-3.35 217.31-4.3 218.84-5.25 219.69-6.88 220.54-8.5 220.54-10.5L220.54-10.5Q220.54-12.5 219.69-14.13 218.84-15.75 217.31-16.73 215.79-17.7 213.84-17.7L213.84-17.7Q211.94-17.7 210.41-16.7 208.89-15.7 208.01-14.08 207.14-12.45 207.14-10.5ZM240.19 0.6L239.94 0.6 228.44-20.7 233.94-20.7 241.74-4.25 238.89-4.35 246.03-20.7 251.24-20.7 240.19 0.6ZM265.83 0.5L265.83 0.5Q262.28 0.5 259.73-0.93 257.18-2.35 255.81-4.83 254.43-7.3 254.43-10.5L254.43-10.5Q254.43-13.55 255.98-16.05 257.53-18.55 260.13-20.05 262.73-21.55 265.93-21.55L265.93-21.55Q270.03-21.55 272.73-19.15 275.43-16.75 276.38-12.55L276.38-12.55 259.33-6.55 258.23-9.3 272.23-14.4 271.23-13.75Q270.63-15.4 269.23-16.63 267.83-17.85 265.58-17.85L265.58-17.85Q263.68-17.85 262.18-16.93 260.68-16 259.83-14.4 258.98-12.8 258.98-10.75L258.98-10.75Q258.98-8.6 259.88-6.98 260.78-5.35 262.36-4.42 263.93-3.5 265.93-3.5L265.93-3.5Q267.28-3.5 268.56-4 269.83-4.5 270.93-5.3L270.93-5.3 273.08-1.85Q271.53-0.8 269.61-0.15 267.68 0.5 265.83 0.5ZM282.23-20.7L286.38-20.7 286.83-14.7 286.58-15.5Q287.38-17.4 288.91-18.73 290.43-20.05 292.11-20.78 293.78-21.5 295.03-21.5L295.03-21.5 294.78-16.9Q292.43-17.05 290.66-16 288.88-14.95 287.86-13.2 286.83-11.45 286.83-9.45L286.83-9.45 286.83 0 282.23 0 282.23-20.7Z" fill="#001f3f" data-fill-palette-color="secondary" stroke-width="7" stroke="black" stroke-linejoin="round"></path></g></svg></g></svg></g><g transform="matrix(1,0,0,1,62.598456,59.36747165876606)"><svg viewBox="0 0 191.219088 23.547176471639496" height="23.547176471639496" width="191.219088"><g transform="matrix(1,0,0,1,0,0)"><svg width="191.219088" viewBox="-2.490000009536743 -43.11000061035156 488.80999755859375 61.06999969482422" height="23.547176471639496" data-palette-color="#001f3f"><path d="M24.9-28.56L24.9-27.93Q24.9-23.88 24.71-19.8 24.51-15.72 24.22-11.67L24.22-11.67Q24.17-10.94 24.12-9.69 24.07-8.45 23.93-7.01 23.78-5.57 23.54-4.1 23.29-2.64 22.78-1.44 22.27-0.24 21.46 0.51 20.65 1.27 19.48 1.27L19.48 1.27Q18.46 1.27 17.65 0.83 16.85 0.39 16.31-0.32 15.77-1.03 15.48-1.93 15.19-2.83 15.19-3.81L15.19-3.81Q15.19-5.42 15.28-7.06 15.38-8.69 15.58-10.3L15.58-10.3 10.74-9.81Q10.6-8.54 10.42-6.76 10.25-4.98 9.74-3.34 9.23-1.71 8.2-0.54 7.18 0.63 5.37 0.63L5.37 0.63Q4.25 0.63 3.52 0.12 2.78-0.39 2.34-1.2 1.9-2 1.71-2.98 1.51-3.96 1.51-4.83L1.51-4.83Q1.51-7.76 1.76-10.67 2-13.57 2.1-16.5L2.1-16.5Q2.2-19.58 2.17-22.68 2.15-25.78 2.25-28.91L2.25-28.91Q2.29-29.93 2.32-31.3 2.34-32.67 2.66-33.86 2.98-35.06 3.74-35.89 4.49-36.72 6.01-36.72L6.01-36.72Q8.11-36.72 9.18-35.62 10.25-34.52 10.69-32.89 11.13-31.25 11.13-29.42 11.13-27.59 11.13-26.12L11.13-26.12Q11.13-24.17 11.04-22.29 10.94-20.41 10.84-18.51L10.84-18.51 16.06-19.29Q16.11-21.68 16.16-24.02 16.21-26.37 16.36-28.71L16.36-28.71Q16.41-29.83 16.46-31.1 16.5-32.37 16.85-33.45 17.19-34.52 17.99-35.23 18.8-35.94 20.41-35.94L20.41-35.94Q21.78-35.94 22.63-35.16 23.49-34.38 24-33.25 24.51-32.13 24.71-30.86 24.9-29.59 24.9-28.56L24.9-28.56ZM48.58-8.69L48.58-8.69Q48.58-7.03 47.53-5.44 46.48-3.86 44.89-2.61 43.31-1.37 41.5-0.61 39.69 0.15 38.18 0.15L38.18 0.15Q35.59 0.15 33.57-1.15 31.54-2.44 30.17-4.44 28.81-6.45 28.1-8.86 27.39-11.28 27.39-13.57L27.39-13.57Q27.39-16.02 28.07-18.8 28.76-21.58 30.15-23.93 31.54-26.27 33.66-27.83 35.79-29.39 38.72-29.39L38.72-29.39Q40.38-29.39 41.89-28.83 43.41-28.27 44.53-27.25 45.65-26.22 46.34-24.8 47.02-23.39 47.02-21.63L47.02-21.63Q47.02-19.34 46.04-17.33 45.07-15.33 43.45-13.87 41.84-12.4 39.74-11.5 37.64-10.6 35.45-10.5L35.45-10.5Q35.64-9.08 36.59-8.45 37.55-7.81 38.86-7.81L38.86-7.81Q39.84-7.81 40.77-8.3 41.7-8.79 42.58-9.4 43.45-10.01 44.31-10.5 45.16-10.99 46.04-10.99L46.04-10.99Q47.02-10.99 47.8-10.35 48.58-9.72 48.58-8.69ZM40.67-20.65L40.67-20.65Q40.67-21.29 40.33-21.97 39.99-22.66 39.26-22.66L39.26-22.66Q38.18-22.66 37.45-22.09 36.72-21.53 36.23-20.68 35.74-19.82 35.47-18.85 35.2-17.87 35.15-17.04L35.15-17.04Q35.84-17.19 36.79-17.43 37.74-17.68 38.6-18.09 39.45-18.51 40.06-19.14 40.67-19.78 40.67-20.65ZM71.28-6.88L71.28-6.88Q71.28-6.01 71.21-4.59 71.14-3.17 70.8-1.83 70.45-0.49 69.72 0.49 68.99 1.46 67.67 1.46L67.67 1.46Q65.86 1.46 64.89 0.29 63.91-0.88 63.96-2.64L63.96-2.64Q62.4-1.27 60.42-0.49 58.44 0.29 56.39 0.29L56.39 0.29Q54.98 0.29 53.71-0.39 52.44-1.07 51.46-2.15 50.48-3.22 49.9-4.57 49.31-5.91 49.31-7.23L49.31-7.23Q49.31-9.57 50.75-11.33 52.19-13.09 54.29-14.33 56.39-15.58 58.76-16.31 61.13-17.04 62.98-17.29L62.98-17.29Q62.98-17.53 63.01-17.72 63.03-17.92 63.03-18.16L63.03-18.16Q63.03-19.68 62.2-20.61 61.37-21.53 59.86-21.53L59.86-21.53Q58.64-21.53 57.76-21.12 56.88-20.7 56.1-20.19 55.32-19.68 54.54-19.26 53.75-18.85 52.78-18.85L52.78-18.85Q51.7-18.85 50.95-19.53 50.19-20.21 50.19-21.29L50.19-21.29Q50.19-22.9 51.14-24.22 52.09-25.54 53.54-26.44 54.98-27.34 56.66-27.86 58.34-28.37 59.76-28.37L59.76-28.37Q61.08-28.37 62.4-28.05 63.72-27.73 64.89-27.08 66.06-26.42 67.01-25.46 67.96-24.51 68.55-23.24L68.55-23.24Q69.43-21.44 69.97-19.41 70.5-17.38 70.8-15.26 71.09-13.13 71.19-11.01 71.28-8.89 71.28-6.88ZM63.47-8.45L63.47-8.45 63.33-11.77Q63.23-11.77 63.13-11.79 63.03-11.82 62.93-11.82L62.93-11.82Q62.3-11.82 61.35-11.5 60.4-11.18 59.52-10.62 58.64-10.06 58.03-9.38 57.42-8.69 57.42-7.96L57.42-7.96Q57.42-7.28 57.91-7.03 58.39-6.79 59.03-6.79L59.03-6.79Q60.1-6.79 61.32-7.35 62.54-7.91 63.47-8.45ZM85.59 1.76L85.59 1.76Q82.12 1.76 80.19 0.85 78.26-0.05 77.31-1.71 76.36-3.37 76.16-5.71 75.97-8.06 75.97-10.94L75.97-10.94Q75.97-13.23 76.12-15.55 76.26-17.87 76.56-20.51L76.56-20.51Q75.87-20.51 75.48-20.48 75.09-20.46 74.85-20.46L74.85-20.46Q73.28-20.46 72.14-21.14 70.99-21.83 70.99-23.24L70.99-23.24Q70.99-24.12 71.65-24.8 72.31-25.49 73.33-25.98 74.36-26.46 75.55-26.76 76.75-27.05 77.82-27.15L77.82-27.15Q77.82-28.52 78.02-30.18 78.22-31.84 78.73-33.28 79.24-34.72 80.12-35.69 81-36.67 82.37-36.67L82.37-36.67Q83.15-36.67 83.76-36.21 84.37-35.74 84.76-35.03 85.15-34.33 85.34-33.45 85.54-32.57 85.54-31.74L85.54-31.74Q85.54-30.76 85.39-29.74 85.25-28.71 84.86-27.2L84.86-27.2Q85.69-27.29 85.98-27.32 86.27-27.34 86.52-27.34L86.52-27.34Q87.35-27.34 88.25-27.2 89.15-27.05 89.91-26.71 90.67-26.37 91.15-25.81 91.64-25.24 91.64-24.46L91.64-24.46Q91.64-23.58 90.93-22.9 90.23-22.22 89.15-21.73 88.08-21.24 86.86-20.97 85.64-20.7 84.56-20.61L84.56-20.61Q84.27-18.6 84.15-16.92 84.03-15.23 83.88-13.53L83.88-13.53Q83.78-12.7 83.71-11.84 83.64-10.99 83.64-10.11L83.64-10.11Q83.64-9.47 83.68-8.62 83.73-7.76 84.03-6.98 84.32-6.2 84.95-5.64 85.59-5.08 86.71-5.08L86.71-5.08Q87.39-5.08 88.13-5.2 88.86-5.32 89.59-5.32L89.59-5.32Q90.86-5.32 91.42-4.44 91.98-3.56 91.98-2.2L91.98-2.2Q91.98-1.17 91.37-0.42 90.76 0.34 89.84 0.81 88.91 1.27 87.76 1.51 86.61 1.76 85.59 1.76ZM130.9-17.14L130.9-17.14Q130.9-15.14 130.7-13.01 130.51-10.89 130.02-8.89 129.53-6.88 128.67-5.1 127.82-3.32 126.5-1.98 125.18-0.63 123.33 0.15 121.47 0.93 118.98 0.93L118.98 0.93Q115.32 0.93 112.61-0.78 109.9-2.49 108.09-5.15 106.29-7.81 105.41-11.11 104.53-14.4 104.53-17.63L104.53-17.63Q104.53-17.97 104.53-18.26 104.53-18.55 104.58-18.8L104.58-18.8Q104.63-19.82 104.75-21.58 104.87-23.34 105.16-25.34 105.46-27.34 105.92-29.44 106.38-31.54 107.14-33.2 107.9-34.86 108.97-35.94 110.05-37.01 111.51-37.01L111.51-37.01Q112.59-37.01 113.32-36.38 114.05-35.74 114.51-34.79 114.98-33.84 115.17-32.79 115.37-31.74 115.37-30.86L115.37-30.86Q115.37-29.54 115.1-28.2 114.83-26.86 114.59-25.54L114.59-25.54Q114.2-23.44 113.95-21.34 113.71-19.24 113.71-17.04L113.71-17.04Q113.71-15.92 113.83-14.31 113.95-12.7 114.44-11.21 114.93-9.72 115.83-8.67 116.74-7.62 118.3-7.62L118.3-7.62Q119.81-7.62 120.72-8.64 121.62-9.67 122.06-11.08 122.5-12.5 122.62-14.06 122.74-15.63 122.74-16.75L122.74-16.75Q122.74-19.97 122.2-23.12 121.67-26.27 120.79-29.39L120.79-29.39Q120.54-30.22 120.37-31.05 120.2-31.88 120.2-32.71L120.2-32.71Q120.2-34.08 121.01-35.11 121.81-36.13 123.28-36.13L123.28-36.13Q124.5-36.13 125.55-35.18 126.6-34.23 127.43-32.69 128.26-31.15 128.87-29.25 129.48-27.34 129.92-25.46 130.36-23.58 130.58-21.88 130.8-20.17 130.85-19.09L130.85-19.09Q130.9-18.6 130.9-18.14 130.9-17.68 130.9-17.14ZM156.48-14.55L156.48-14.55Q156.48-12.4 156.02-9.84 155.55-7.28 154.45-5.08 153.35-2.88 151.57-1.42 149.79 0.05 147.1 0.05L147.1 0.05Q146.42 0.05 145.69-0.05 144.96-0.15 144.3-0.39 143.64-0.63 143.1-1.05 142.56-1.46 142.27-2.15L142.27-2.15 141.83 4.88Q141.78 6.01 141.76 7.57 141.73 9.13 141.37 10.55 141 11.96 140.15 12.96 139.29 13.96 137.68 13.96L137.68 13.96Q136.75 13.96 136.12 13.01 135.48 12.06 135.12 10.6 134.75 9.13 134.56 7.32 134.36 5.52 134.31 3.86 134.26 2.2 134.26 0.83 134.26-0.54 134.26-1.17L134.26-1.17Q134.26-4.44 134.21-7.69 134.16-10.94 134.16-14.21L134.16-14.21Q134.16-14.79 134.16-16.04 134.16-17.29 134.26-18.75 134.36-20.21 134.58-21.78 134.8-23.34 135.24-24.63 135.68-25.93 136.36-26.73 137.05-27.54 138.02-27.54L138.02-27.54Q138.66-27.54 139.17-27.17 139.68-26.81 140.05-26.25 140.41-25.68 140.66-25.05 140.9-24.41 141.05-23.88L141.05-23.88Q142.56-25.59 144.54-26.46 146.52-27.34 148.76-27.34L148.76-27.34Q151.11-27.34 152.6-26.03 154.09-24.71 154.94-22.75 155.8-20.8 156.14-18.58 156.48-16.36 156.48-14.55ZM149.5-14.94L149.5-14.94Q149.5-15.67 149.37-16.43 149.25-17.19 148.94-17.85 148.62-18.51 148.03-18.92 147.45-19.34 146.57-19.34L146.57-19.34Q145.4-19.34 144.1-18.58 142.81-17.82 142.17-16.85L142.17-16.85Q141.93-16.46 141.88-15.58 141.83-14.7 141.83-14.26L141.83-14.26Q141.83-13.92 141.86-13.35 141.88-12.79 141.93-12.21 141.98-11.62 142.05-11.08 142.12-10.55 142.27-10.25L142.27-10.25Q142.42-9.81 142.9-9.45 143.39-9.08 143.98-8.79 144.57-8.5 145.18-8.35 145.79-8.2 146.23-8.2L146.23-8.2Q147.25-8.2 147.89-8.98 148.52-9.77 148.89-10.84 149.25-11.91 149.37-13.06 149.5-14.21 149.5-14.94ZM180.5-32.13L180.5-32.13Q180.5-28.56 180.23-25.05 179.96-21.53 179.96-17.97L179.96-17.97Q179.96-15.09 180.13-12.26 180.3-9.42 180.3-6.54L180.3-6.54Q180.3-5.76 180.26-4.66 180.21-3.56 179.94-2.54 179.67-1.51 179.06-0.78 178.45-0.05 177.33-0.05L177.33-0.05Q175.86-0.05 174.91-1.15 173.96-2.25 173.71-3.61L173.71-3.61Q172.79-1.86 171.03-0.63 169.27 0.59 167.22 0.59L167.22 0.59Q165.02 0.59 163.43-0.93 161.85-2.44 160.8-4.59 159.75-6.74 159.24-9.08 158.72-11.43 158.72-13.13L158.72-13.13Q158.72-14.36 158.87-15.92 159.02-17.48 159.38-19.09 159.75-20.7 160.33-22.24 160.92-23.78 161.82-25 162.73-26.22 163.97-26.95 165.22-27.69 166.83-27.69L166.83-27.69Q168.59-27.69 170.2-26.66 171.81-25.63 172.64-24.12L172.64-24.12 173.08-31.88Q173.13-32.81 173.22-34.06 173.32-35.3 173.64-36.43 173.96-37.55 174.64-38.33 175.32-39.11 176.64-39.11L176.64-39.11Q178.06-39.11 178.84-38.43 179.62-37.74 179.99-36.69 180.35-35.64 180.43-34.42 180.5-33.2 180.5-32.13ZM172.54-10.06L172.54-10.45Q172.54-11.57 172.49-12.65 172.44-13.72 172.49-14.84L172.49-14.84Q172.2-15.48 171.81-16.24 171.42-16.99 170.86-17.65 170.3-18.31 169.61-18.75 168.93-19.19 168.15-19.19L168.15-19.19Q167.27-19.19 166.73-18.65 166.19-18.12 165.95-17.36 165.71-16.6 165.63-15.72 165.56-14.84 165.56-14.21L165.56-14.21Q165.56-13.62 165.66-12.48 165.75-11.33 166.02-10.16 166.29-8.98 166.78-8.11 167.27-7.23 168.1-7.23L168.1-7.23Q168.73-7.23 169.37-7.5 170-7.76 170.56-8.18 171.13-8.59 171.64-9.11 172.15-9.62 172.54-10.06L172.54-10.06ZM204.47-6.88L204.47-6.88Q204.47-6.01 204.4-4.59 204.33-3.17 203.98-1.83 203.64-0.49 202.91 0.49 202.18 1.46 200.86 1.46L200.86 1.46Q199.05 1.46 198.08 0.29 197.1-0.88 197.15-2.64L197.15-2.64Q195.59-1.27 193.61-0.49 191.63 0.29 189.58 0.29L189.58 0.29Q188.16 0.29 186.89-0.39 185.62-1.07 184.65-2.15 183.67-3.22 183.09-4.57 182.5-5.91 182.5-7.23L182.5-7.23Q182.5-9.57 183.94-11.33 185.38-13.09 187.48-14.33 189.58-15.58 191.95-16.31 194.32-17.04 196.17-17.29L196.17-17.29Q196.17-17.53 196.2-17.72 196.22-17.92 196.22-18.16L196.22-18.16Q196.22-19.68 195.39-20.61 194.56-21.53 193.05-21.53L193.05-21.53Q191.83-21.53 190.95-21.12 190.07-20.7 189.29-20.19 188.51-19.68 187.72-19.26 186.94-18.85 185.97-18.85L185.97-18.85Q184.89-18.85 184.14-19.53 183.38-20.21 183.38-21.29L183.38-21.29Q183.38-22.9 184.33-24.22 185.28-25.54 186.72-26.44 188.16-27.34 189.85-27.86 191.53-28.37 192.95-28.37L192.95-28.37Q194.27-28.37 195.59-28.05 196.9-27.73 198.08-27.08 199.25-26.42 200.2-25.46 201.15-24.51 201.74-23.24L201.74-23.24Q202.62-21.44 203.15-19.41 203.69-17.38 203.98-15.26 204.28-13.13 204.37-11.01 204.47-8.89 204.47-6.88ZM196.66-8.45L196.66-8.45 196.51-11.77Q196.42-11.77 196.32-11.79 196.22-11.82 196.12-11.82L196.12-11.82Q195.49-11.82 194.54-11.5 193.58-11.18 192.7-10.62 191.83-10.06 191.22-9.38 190.61-8.69 190.61-7.96L190.61-7.96Q190.61-7.28 191.09-7.03 191.58-6.79 192.22-6.79L192.22-6.79Q193.29-6.79 194.51-7.35 195.73-7.91 196.66-8.45ZM218.78 1.76L218.78 1.76Q215.31 1.76 213.38 0.85 211.45-0.05 210.5-1.71 209.55-3.37 209.35-5.71 209.16-8.06 209.16-10.94L209.16-10.94Q209.16-13.23 209.3-15.55 209.45-17.87 209.74-20.51L209.74-20.51Q209.06-20.51 208.67-20.48 208.28-20.46 208.03-20.46L208.03-20.46Q206.47-20.46 205.32-21.14 204.18-21.83 204.18-23.24L204.18-23.24Q204.18-24.12 204.84-24.8 205.5-25.49 206.52-25.98 207.55-26.46 208.74-26.76 209.94-27.05 211.01-27.15L211.01-27.15Q211.01-28.52 211.21-30.18 211.4-31.84 211.92-33.28 212.43-34.72 213.31-35.69 214.19-36.67 215.55-36.67L215.55-36.67Q216.33-36.67 216.95-36.21 217.56-35.74 217.95-35.03 218.34-34.33 218.53-33.45 218.73-32.57 218.73-31.74L218.73-31.74Q218.73-30.76 218.58-29.74 218.43-28.71 218.04-27.2L218.04-27.2Q218.87-27.29 219.17-27.32 219.46-27.34 219.7-27.34L219.7-27.34Q220.53-27.34 221.44-27.2 222.34-27.05 223.1-26.71 223.85-26.37 224.34-25.81 224.83-25.24 224.83-24.46L224.83-24.46Q224.83-23.58 224.12-22.9 223.42-22.22 222.34-21.73 221.27-21.24 220.05-20.97 218.83-20.7 217.75-20.61L217.75-20.61Q217.46-18.6 217.34-16.92 217.21-15.23 217.07-13.53L217.07-13.53Q216.97-12.7 216.9-11.84 216.82-10.99 216.82-10.11L216.82-10.11Q216.82-9.47 216.87-8.62 216.92-7.76 217.21-6.98 217.51-6.2 218.14-5.64 218.78-5.08 219.9-5.08L219.9-5.08Q220.58-5.08 221.32-5.2 222.05-5.32 222.78-5.32L222.78-5.32Q224.05-5.32 224.61-4.44 225.17-3.56 225.17-2.2L225.17-2.2Q225.17-1.17 224.56-0.42 223.95 0.34 223.02 0.81 222.1 1.27 220.95 1.51 219.8 1.76 218.78 1.76ZM246.61-8.69L246.61-8.69Q246.61-7.03 245.56-5.44 244.51-3.86 242.92-2.61 241.33-1.37 239.53-0.61 237.72 0.15 236.21 0.15L236.21 0.15Q233.62 0.15 231.59-1.15 229.56-2.44 228.2-4.44 226.83-6.45 226.12-8.86 225.41-11.28 225.41-13.57L225.41-13.57Q225.41-16.02 226.1-18.8 226.78-21.58 228.17-23.93 229.56-26.27 231.69-27.83 233.81-29.39 236.74-29.39L236.74-29.39Q238.4-29.39 239.92-28.83 241.43-28.27 242.55-27.25 243.68-26.22 244.36-24.8 245.04-23.39 245.04-21.63L245.04-21.63Q245.04-19.34 244.07-17.33 243.09-15.33 241.48-13.87 239.87-12.4 237.77-11.5 235.67-10.6 233.47-10.5L233.47-10.5Q233.67-9.08 234.62-8.45 235.57-7.81 236.89-7.81L236.89-7.81Q237.87-7.81 238.79-8.3 239.72-8.79 240.6-9.4 241.48-10.01 242.33-10.5 243.19-10.99 244.07-10.99L244.07-10.99Q245.04-10.99 245.82-10.35 246.61-9.72 246.61-8.69ZM238.7-20.65L238.7-20.65Q238.7-21.29 238.35-21.97 238.01-22.66 237.28-22.66L237.28-22.66Q236.21-22.66 235.47-22.09 234.74-21.53 234.25-20.68 233.76-19.82 233.5-18.85 233.23-17.87 233.18-17.04L233.18-17.04Q233.86-17.19 234.81-17.43 235.77-17.68 236.62-18.09 237.48-18.51 238.09-19.14 238.7-19.78 238.7-20.65ZM280.24-35.25L280.24-35.25Q280.24-33.4 278.97-31.88 277.7-30.37 275.87-29.17 274.04-27.98 272.04-27.1 270.04-26.22 268.57-25.63L268.57-25.63Q268.57-24.61 268.52-23.54 268.48-22.46 268.38-21.39L268.38-21.39Q269.94-22.17 271.89-22.85 273.85-23.54 275.6-23.54L275.6-23.54Q277.02-23.54 277.92-22.95 278.83-22.36 278.83-20.9L278.83-20.9Q278.83-19.29 277.68-18.02 276.53-16.75 274.92-15.77 273.31-14.79 271.55-14.11 269.79-13.43 268.57-13.04L268.57-13.04Q268.57-11.43 268.52-9.84 268.48-8.25 268.38-6.69L268.38-6.69Q268.33-5.91 268.21-4.74 268.09-3.56 267.72-2.47 267.35-1.37 266.67-0.56 265.99 0.24 264.91 0.24L264.91 0.24Q263.89 0.24 263.15-0.76 262.42-1.76 261.91-3.32 261.4-4.88 261.08-6.81 260.76-8.74 260.59-10.6 260.42-12.45 260.39-14.01 260.37-15.58 260.37-16.41L260.37-16.41Q260.37-17.04 260.39-18.29 260.42-19.53 260.44-21.04 260.47-22.56 260.54-24.22 260.61-25.88 260.71-27.37 260.81-28.86 260.98-30 261.15-31.15 261.4-31.69L261.4-31.69Q261.93-32.76 263.96-33.81 265.99-34.86 268.48-35.67 270.97-36.47 273.33-36.99 275.7-37.5 276.97-37.5L276.97-37.5Q277.56-37.5 278.12-37.43 278.68-37.35 279.17-37.11 279.66-36.87 279.95-36.43 280.24-35.99 280.24-35.25ZM297.43-18.26L297.43-18.26Q296.74-18.21 296.26-18.38 295.77-18.55 295.28-18.75L295.28-18.75Q294.84-18.95 294.4-19.12 293.96-19.29 293.42-19.24L293.42-19.24Q292.45-19.19 291.69-18.7 290.93-18.21 290.32-17.48 289.71-16.75 289.27-15.84 288.83-14.94 288.59-14.06L288.59-14.06Q288.44-13.48 288.37-12.28 288.3-11.08 288.3-9.72L288.3-9.72Q288.25-8.3 288.25-7.03 288.25-5.76 288.15-5.03L288.15-5.03Q288.1-4.25 287.91-3.2 287.71-2.15 287.3-1.22 286.88-0.29 286.2 0.34 285.51 0.98 284.44 0.98L284.44 0.98Q283.61 0.98 283 0.49 282.39 0 281.97-0.81 281.56-1.61 281.29-2.69 281.02-3.76 280.88-4.88L280.88-4.88Q280.73-6.05 280.66-7.23 280.58-8.4 280.56-9.45 280.53-10.5 280.56-11.38 280.58-12.26 280.58-12.79L280.58-12.79Q280.53-14.5 280.41-16.24 280.29-17.97 280.29-19.68L280.29-19.68Q280.29-20.75 280.39-22.07 280.49-23.39 280.92-24.54 281.36-25.68 282.22-26.46 283.07-27.25 284.59-27.25L284.59-27.25Q285.42-27.25 286-26.71 286.59-26.17 286.95-25.39 287.32-24.61 287.52-23.73 287.71-22.85 287.76-22.12L287.76-22.12Q288.93-24.02 290.4-25.22 291.86-26.42 294.21-26.51L294.21-26.51Q295.38-26.56 296.53-26.29 297.67-26.03 298.62-25.42 299.58-24.8 300.19-23.83 300.8-22.85 300.85-21.53L300.85-21.53Q300.94-19.97 299.92-19.14 298.89-18.31 297.43-18.26ZM310.85 1.42L310.85 1.42Q308.36 1.42 306.51 0.1 304.65-1.22 303.38-3.27 302.11-5.32 301.48-7.84 300.84-10.35 300.84-12.79L300.84-12.79Q300.84-15.38 301.48-18.14 302.11-20.9 303.43-23.17 304.75-25.44 306.8-26.88 308.85-28.32 311.68-28.32L311.68-28.32Q314.42-28.32 316.35-26.83 318.28-25.34 319.45-23.12 320.62-20.9 321.11-18.26 321.6-15.63 321.45-13.28L321.45-13.28Q321.3-10.69 320.64-8.06 319.98-5.42 318.72-3.32 317.45-1.22 315.49 0.1 313.54 1.42 310.85 1.42ZM311.34-20.65L311.34-20.65Q310.61-20.65 310.05-19.87 309.49-19.09 309.12-17.97 308.75-16.85 308.56-15.6 308.36-14.36 308.36-13.43L308.36-13.43Q308.36-12.26 308.58-10.89 308.8-9.52 309.19-8.37 309.58-7.23 310.15-6.47 310.71-5.71 311.44-5.71L311.44-5.71Q312.22-5.71 312.78-6.45 313.34-7.18 313.69-8.3 314.03-9.42 314.17-10.77 314.32-12.11 314.32-13.28L314.32-13.28Q314.32-14.36 314.13-15.65 313.93-16.94 313.56-18.07 313.2-19.19 312.64-19.92 312.07-20.65 311.34-20.65ZM353.58-16.11L353.58-16.11Q353.58-15.19 353.58-13.6 353.58-12.01 353.5-10.16 353.43-8.3 353.19-6.42 352.94-4.54 352.43-3.03 351.92-1.51 351.13-0.54 350.35 0.44 349.13 0.44L349.13 0.44Q348.06 0.44 347.5-0.46 346.94-1.37 346.69-2.59 346.45-3.81 346.42-5.08 346.4-6.35 346.4-7.08L346.4-7.08Q346.4-9.28 346.54-11.38 346.69-13.48 346.69-15.67L346.69-15.67Q346.69-15.92 346.69-16.55 346.69-17.19 346.59-17.82 346.5-18.46 346.28-18.95 346.06-19.43 345.62-19.43L345.62-19.43Q344.74-19.43 344.2-18.53 343.66-17.63 343.32-16.41 342.98-15.19 342.83-13.99 342.69-12.79 342.64-12.21L342.64-12.21Q342.54-11.57 342.47-10.3 342.39-9.03 342.27-7.52 342.15-6.01 341.88-4.42 341.61-2.83 341.2-1.54 340.78-0.24 340.15 0.59 339.51 1.42 338.59 1.42L338.59 1.42Q337.41 1.42 336.78 0.39 336.14-0.63 335.85-2 335.56-3.37 335.48-4.79 335.41-6.2 335.41-6.98L335.41-6.98Q335.41-7.81 335.44-8.59 335.46-9.38 335.46-10.21L335.46-10.21Q335.46-10.55 335.46-11.33 335.46-12.11 335.44-13.06 335.41-14.01 335.34-15.04 335.27-16.06 335.12-16.92 334.97-17.77 334.68-18.31 334.39-18.85 334-18.85L334-18.85Q333.36-18.85 332.82-18.04 332.29-17.24 331.9-16.14 331.51-15.04 331.29-13.96 331.07-12.89 331.07-12.4L331.07-12.4 331.07-12.11Q331.07-9.77 331.36-7.52 331.65-5.27 331.65-2.93L331.65-2.93Q331.65-1.56 330.77-0.42 329.89 0.73 328.33 0.73L328.33 0.73Q327.21 0.73 326.48-0.12 325.74-0.98 325.26-2.34 324.77-3.71 324.5-5.35 324.23-6.98 324.13-8.57 324.03-10.16 324.01-11.45 323.99-12.74 323.99-13.38L323.99-13.38Q323.99-14.11 323.96-15.53 323.94-16.94 324.01-18.6 324.08-20.26 324.28-22 324.47-23.73 324.91-25.15 325.35-26.56 326.06-27.47 326.77-28.37 327.89-28.37L327.89-28.37Q329.16-28.37 329.97-27.69 330.77-27 330.77-25.63L330.77-25.63Q330.77-25.34 330.75-25.05 330.72-24.76 330.68-24.51L330.68-24.51Q331.21-25.29 331.99-26.1 332.78-26.9 333.68-27.56 334.58-28.22 335.61-28.64 336.63-29.05 337.66-29.05L337.66-29.05Q338.63-29.05 339.42-28.52 340.2-27.98 340.78-27.17 341.37-26.37 341.76-25.44 342.15-24.51 342.3-23.68L342.3-23.68Q342.78-24.56 343.49-25.46 344.2-26.37 345.03-27.05 345.86-27.73 346.86-28.17 347.86-28.61 348.94-28.61L348.94-28.61Q349.96-28.61 350.69-27.88 351.43-27.15 351.96-26 352.5-24.85 352.79-23.41 353.09-21.97 353.28-20.58 353.48-19.19 353.53-17.99 353.58-16.8 353.58-16.11ZM393.22-7.23L393.22-7.23Q393.22-6.25 393.05-4.88 392.88-3.52 392.39-2.27 391.9-1.03 391.07-0.17 390.24 0.68 388.87 0.68L388.87 0.68Q387.07 0.68 386.16-0.63 385.26-1.95 384.87-3.78 384.48-5.62 384.41-7.52 384.33-9.42 384.28-10.55L384.28-10.55Q380.77-9.96 377.35-9.52L377.35-9.52Q377.25-8.4 376.94-6.74 376.62-5.08 375.96-3.54 375.3-2 374.25-0.88 373.2 0.24 371.69 0.24L371.69 0.24Q370.51 0.24 369.85-0.61 369.2-1.46 368.85-2.64 368.51-3.81 368.44-5.05 368.37-6.3 368.37-7.13L368.37-7.13Q368.37-9.91 368.81-12.62 369.24-15.33 369.83-18.02L369.83-18.02Q370.12-19.43 370.61-21.34 371.1-23.24 371.81-25.27 372.52-27.29 373.47-29.27 374.42-31.25 375.64-32.81 376.86-34.38 378.42-35.35 379.99-36.33 381.89-36.33L381.89-36.33Q383.75-36.33 385.11-35.5 386.48-34.67 387.51-33.3 388.53-31.93 389.22-30.2 389.9-28.47 390.36-26.68 390.83-24.9 391.14-23.19 391.46-21.48 391.71-20.17L391.71-20.17Q392.34-16.99 392.78-13.75 393.22-10.5 393.22-7.23ZM383.8-17.68L383.8-19.09Q383.8-19.68 383.72-21.02 383.65-22.36 383.4-23.71 383.16-25.05 382.65-26.1 382.14-27.15 381.26-27.15L381.26-27.15Q380.77-27.15 380.33-26.49 379.89-25.83 379.55-24.83 379.21-23.83 378.94-22.61 378.67-21.39 378.47-20.26 378.28-19.14 378.18-18.24 378.08-17.33 378.03-16.94L378.03-16.94Q380.96-17.19 383.8-17.68L383.8-17.68ZM410.7-26.86L410.7-26.86Q410.7-25.44 409.75-24.76 408.79-24.07 407.62-23.46 406.45-22.85 405.5-22.02 404.54-21.19 404.54-19.53L404.54-19.53Q404.54-18.65 404.96-18.02 405.37-17.38 405.99-16.87 406.6-16.36 407.33-15.82 408.06-15.28 408.67-14.6 409.28-13.92 409.7-12.94 410.11-11.96 410.11-10.55L410.11-10.55Q410.11-8.5 409.06-6.52 408.01-4.54 406.38-3 404.74-1.46 402.69-0.54 400.64 0.39 398.64 0.39L398.64 0.39Q397.81 0.39 396.98 0.27 396.15 0.15 395.49-0.2 394.83-0.54 394.39-1.15 393.95-1.76 393.95-2.73L393.95-2.73Q393.95-4.1 394.49-4.86 395.02-5.62 395.85-6.05 396.68-6.49 397.64-6.74 398.59-6.98 399.42-7.35 400.25-7.71 400.79-8.3 401.32-8.89 401.32-9.96L401.32-9.96Q401.32-10.99 400.52-12.08 399.71-13.18 398.73-14.43 397.76-15.67 396.95-17.09 396.15-18.51 396.15-20.21L396.15-20.21Q396.15-22.31 397-24.1 397.86-25.88 399.3-27.2 400.74-28.52 402.59-29.27 404.45-30.03 406.5-30.03L406.5-30.03Q407.28-30.03 408.04-29.88 408.79-29.74 409.38-29.37 409.96-29 410.33-28.39 410.7-27.78 410.7-26.86ZM434.82-12.65L434.82-12.65Q434.82-11.82 434.79-10.18 434.77-8.54 434.64-6.76 434.52-4.98 434.33-3.39 434.13-1.81 433.84-1.07L433.84-1.07Q433.45-0.15 432.81 0.54 432.18 1.22 431.1 1.22L431.1 1.22Q429.44 1.22 428.71-0.1 427.98-1.42 427.74-3.37 427.49-5.32 427.54-7.62 427.59-9.91 427.49-11.87 427.39-13.82 426.95-15.14 426.52-16.46 425.34-16.46L425.34-16.46Q423.73-16.46 422.88-15.94 422.02-15.43 421.66-14.6 421.29-13.77 421.22-12.7 421.14-11.62 421.05-10.45L421.05-10.45Q420.95-9.33 420.9-7.42 420.85-5.52 420.46-3.66 420.07-1.81 419.17-0.46 418.26 0.88 416.51 0.88L416.51 0.88Q415.43 0.88 414.77 0.05 414.11-0.78 413.72-2.1 413.33-3.42 413.16-5.03 412.99-6.64 412.97-8.18 412.94-9.72 412.97-10.99 412.99-12.26 412.99-12.89L412.99-12.89Q412.99-13.87 413.06-16.11 413.14-18.36 413.38-21.12 413.62-23.88 414.02-26.81 414.41-29.74 415.04-32.15 415.68-34.57 416.58-36.08 417.48-37.6 418.7-37.55L418.7-37.55Q419.48-37.5 420.05-36.87 420.61-36.23 420.97-35.23 421.34-34.23 421.58-33.06 421.83-31.88 421.95-30.74 422.07-29.59 422.1-28.61 422.12-27.64 422.12-27.1L422.12-27.1Q422.12-25.83 422.07-24.56 422.02-23.29 421.93-22.02L421.93-22.02Q423.05-23.54 424.93-24.51 426.81-25.49 428.71-25.49L428.71-25.49Q431.15-25.49 432.4-24.15 433.64-22.8 434.18-20.83 434.72-18.85 434.77-16.63 434.82-14.4 434.82-12.65ZM447.56 1.42L447.56 1.42Q445.07 1.42 443.21 0.1 441.36-1.22 440.09-3.27 438.82-5.32 438.18-7.84 437.55-10.35 437.55-12.79L437.55-12.79Q437.55-15.38 438.18-18.14 438.82-20.9 440.14-23.17 441.45-25.44 443.5-26.88 445.56-28.32 448.39-28.32L448.39-28.32Q451.12-28.32 453.05-26.83 454.98-25.34 456.15-23.12 457.32-20.9 457.81-18.26 458.3-15.63 458.15-13.28L458.15-13.28Q458.01-10.69 457.35-8.06 456.69-5.42 455.42-3.32 454.15-1.22 452.2 0.1 450.24 1.42 447.56 1.42ZM448.05-20.65L448.05-20.65Q447.31-20.65 446.75-19.87 446.19-19.09 445.82-17.97 445.46-16.85 445.26-15.6 445.07-14.36 445.07-13.43L445.07-13.43Q445.07-12.26 445.29-10.89 445.51-9.52 445.9-8.37 446.29-7.23 446.85-6.47 447.41-5.71 448.14-5.71L448.14-5.71Q448.92-5.71 449.49-6.45 450.05-7.18 450.39-8.3 450.73-9.42 450.88-10.77 451.02-12.11 451.02-13.28L451.02-13.28Q451.02-14.36 450.83-15.65 450.63-16.94 450.27-18.07 449.9-19.19 449.34-19.92 448.78-20.65 448.05-20.65ZM482.32-26.27L482.32-26.27Q482.32-24.9 481.61-23.49 480.9-22.07 479.9-20.68 478.9-19.29 477.8-18.04 476.71-16.8 475.88-15.77L475.88-15.77Q476.56-14.7 477.58-12.92 478.61-11.13 479.54-9.13 480.47-7.13 481.12-5.22 481.78-3.32 481.78-2.05L481.78-2.05Q481.78-1.03 481.15-0.17 480.51 0.68 479.39 0.68L479.39 0.68Q478.56 0.68 477.71-0.02 476.85-0.73 476-1.88 475.14-3.03 474.36-4.44 473.58-5.86 472.92-7.23 472.26-8.59 471.75-9.79 471.24-10.99 470.94-11.72L470.94-11.72Q470.31-11.08 469.6-10.67 468.89-10.25 468.21-9.72L468.21-9.72Q468.21-8.69 468.14-6.84 468.06-4.98 467.7-3.17 467.33-1.37 466.5-0.02 465.67 1.32 464.06 1.32L464.06 1.32Q462.79 1.32 462.11 0.17 461.42-0.98 461.1-2.51 460.79-4.05 460.74-5.64 460.69-7.23 460.69-8.06L460.69-8.06Q460.69-11.67 460.89-15.28 461.08-18.9 461.13-22.51L461.13-22.51Q461.13-23.34 461.15-24.68 461.18-26.03 461.32-27.59 461.47-29.15 461.76-30.76 462.06-32.37 462.59-33.67 463.13-34.96 463.99-35.77 464.84-36.57 466.06-36.57L466.06-36.57Q466.94-36.57 467.55-35.91 468.16-35.25 468.53-34.23 468.89-33.2 469.06-31.93 469.23-30.66 469.31-29.42 469.38-28.17 469.38-27.1 469.38-26.03 469.38-25.39L469.38-25.39Q469.38-24.95 469.36-24.1 469.33-23.24 469.31-22.31 469.28-21.39 469.28-20.61 469.28-19.82 469.38-19.48L469.38-19.48Q469.72-19.48 470.41-20.14 471.09-20.8 471.99-21.83 472.9-22.85 473.95-24 475-25.15 476.09-26.17 477.19-27.2 478.27-27.86 479.34-28.52 480.27-28.52L480.27-28.52Q481.25-28.52 481.78-27.83 482.32-27.15 482.32-26.27Z" opacity="1" transform="matrix(1,0,0,1,0,0)" fill="#001f3f" class="slogan-text-1" data-fill-palette-color="secondary" id="SvgjsPath2628" stroke-width="7" stroke="black" stroke-linejoin="round"></path></svg></g></svg></g></svg></g></svg></g><g></g></svg></g></svg></g></svg></g></mask></svg></g><defs></defs></svg><rect width="395.52" height="247.2" fill="none" stroke="none" visibility="hidden"></rect></g></svg></g></svg>